<svg width="107" height="84" viewBox="0 0 107 84" fill="none" xmlns="http://www.w3.org/2000/svg">
<g clip-path="url(#clip0_13_11)">
<path d="M107.012 49.5718C106.736 50.7756 106.533 52.0998 106.173 53.3276C103.296 63.3311 96.7148 69.4102 86.6573 71.7214C85.2604 72.0327 83.8326 72.1821 82.4018 72.1668C74.0825 72.1066 66.2906 74.3336 58.6906 77.5477C53.7729 79.8316 48.6568 81.657 43.4066 83.0009C34.9773 85.0973 26.075 84.0136 18.3888 79.9553C11.088 76.1362 5.41773 69.7833 2.43347 62.0791C0.754996 57.7798 -0.059813 53.1895 0.0359813 48.5727C0.0359813 44.1307 0.0359813 39.6887 0.0359813 35.2468C-0.0751182 30.0703 0.986098 24.9361 3.13952 20.2316C5.29294 15.5272 8.48231 11.3753 12.467 8.08944C17.2766 3.95727 23.1695 1.30349 29.4412 0.445405C34.7996 -0.325017 40.158 0.0842728 45.5044 0.373181C49.8678 0.6019 54.2552 0.975072 58.5947 1.57696C69.8149 3.03354 80.8914 5.18832 91.1167 10.3646C95.6399 12.5002 99.6111 15.6558 102.72 19.5856C104.872 22.3955 106.275 25.71 106.796 29.2158C106.849 29.4479 106.925 29.6738 107.024 29.8899L107.012 49.5718ZM102.816 46.2855C102.325 46.9355 102.013 47.3809 101.618 47.7902C100.814 48.7171 100.035 49.6561 99.2201 50.5228C98.9696 50.8675 98.6019 51.1081 98.1866 51.1991C97.7713 51.29 97.3373 51.225 96.9665 51.0163C96.3911 50.6311 95.6719 49.9089 95.6719 49.3311C95.7533 48.4866 96.1215 47.696 96.7148 47.092C98.9398 44.812 100.627 42.0601 101.654 39.0387C104.051 31.7197 102.792 25.1952 97.2302 19.6939C93.5995 16.3084 89.3213 13.6995 84.6554 12.0258C74.1664 7.89683 63.1739 6.12727 52.0376 5.10405C47.0867 4.65865 42.112 4.52624 37.1372 4.34567C35.0864 4.23504 33.0301 4.28736 30.9876 4.50216C25.4553 5.09819 20.2092 7.27478 15.8714 10.7739C12.1953 13.596 9.22873 17.2437 7.20947 21.4246C5.19021 25.6055 4.17444 30.2034 4.24359 34.8495C4.15573 41.4855 6.37732 47.9441 10.525 53.1109C18.2449 62.8014 28.3503 66.3525 40.4936 64.5348C44.6657 63.7788 48.7312 62.5177 52.601 60.779C60.6206 57.4205 68.6282 54.0138 77.4629 53.4359C79.6446 53.2915 81.8384 53.1832 84.0321 53.147C84.5853 53.1199 85.1265 53.3146 85.5368 53.6882C85.9471 54.0618 86.1927 54.5838 86.2198 55.1393C86.2468 55.6948 86.0529 56.2384 85.6809 56.6504C85.3088 57.0624 84.789 57.3091 84.2358 57.3362C83.3362 57.437 82.4319 57.4893 81.5267 57.4927C75.7464 57.529 70.0173 58.5843 64.6004 60.6105C60.0092 62.3199 55.5019 64.2218 50.9347 66.0034C43.8261 68.7601 36.6337 70.1084 29.0216 68.9046C24.1216 68.1397 19.4467 66.311 15.3226 63.5459C11.1985 60.7808 7.72446 57.1458 5.14265 52.8942L4.43539 51.8108C4.41576 52.1878 4.41576 52.5655 4.43539 52.9424C4.77972 56.0328 5.61335 59.0481 6.9048 61.8745C8.711 65.916 11.3858 69.5058 14.7371 72.3864C18.0885 75.2669 22.0333 77.3666 26.2885 78.5348C32.419 80.3119 38.9439 80.1648 44.9889 78.1135C49.7839 76.5606 54.495 74.6105 59.206 72.7326C64.799 70.3305 70.7258 68.804 76.7796 68.2064C79.285 68.0138 81.8024 68.086 84.2838 67.7489C87.9386 67.3647 91.4238 66.0026 94.3757 63.8048C97.3276 61.6069 99.6382 58.6539 101.066 55.2537C102.292 52.4275 102.889 49.3671 102.816 46.2855Z" fill="#060606"/>
<path d="M37.6766 8.63116C39.3908 8.63116 41.093 8.63116 42.7952 8.63116C43.0843 8.60425 43.3757 8.64081 43.6493 8.73829C43.9229 8.83577 44.1722 8.99184 44.3797 9.19568C44.5873 9.39952 44.7482 9.64625 44.8513 9.91877C44.9544 10.1913 44.9973 10.4831 44.9769 10.7739C44.9753 11.0641 44.913 11.3508 44.794 11.6153C44.6749 11.8797 44.5019 12.1161 44.2859 12.3091C44.0701 12.5021 43.8162 12.6473 43.5408 12.7354C43.2654 12.8235 42.9746 12.8524 42.6873 12.8203C40.146 12.8203 37.6047 12.6879 35.0633 12.6398C29.6364 12.4856 24.3456 14.3599 20.2164 17.8997C16.0872 21.4394 13.4135 26.3923 12.7135 31.7988C12.0134 37.2052 13.3369 42.6801 16.4274 47.1625C19.5179 51.6449 24.1554 54.8156 29.4412 56.0602C34.2291 57.1629 39.235 56.8152 43.8261 55.0611C49.2804 53.111 54.6149 50.8117 60.0572 48.8255C66.5117 46.3819 73.3353 45.0668 80.232 44.9373C83.1645 45.0865 86.0777 44.3844 88.6232 42.9149C93.0226 40.086 95.4441 34.3199 94.0176 29.7696C93.0178 27.1294 91.1253 24.9264 88.6712 23.546C84.3098 20.7298 79.4956 18.6934 74.4421 17.5271C69.6471 16.3233 64.8521 15.5048 59.9732 14.5056C59.6016 14.4334 59.218 14.3852 58.8464 14.2769C58.352 14.1547 57.9183 13.8571 57.6253 13.4389C57.3323 13.0208 57.1997 12.5103 57.2521 12.0018C57.2747 11.7385 57.3488 11.4822 57.4701 11.2477C57.5915 11.0132 57.7577 10.8051 57.9592 10.6351C58.1607 10.4652 58.3936 10.3368 58.6446 10.2573C58.8956 10.1779 59.1597 10.1489 59.4218 10.172C61.3518 10.3766 63.2818 10.6776 65.1878 11.0267C71.3318 12.0712 77.3557 13.7327 83.169 15.9863C86.7562 17.3377 90.1097 19.2469 93.1065 21.6441C98.8126 26.4592 99.9874 32.4781 97.1703 38.9665C94.4851 45.2021 89.5103 48.8736 82.7854 49.0422C72.9751 49.3808 63.3198 51.5994 54.3391 55.5787C50.1494 57.4282 45.8204 58.9417 41.3927 60.1049C37.7748 61.1008 33.986 61.3043 30.2829 60.7016C26.5798 60.0989 23.049 58.704 19.9296 56.6115C16.8101 54.5191 14.1749 51.7778 12.2024 48.5735C10.2298 45.3692 8.9661 41.7765 8.49674 38.039C8.02738 34.3014 8.36336 30.5063 9.48192 26.9105C10.6005 23.3147 12.4755 20.0023 14.98 17.1976C17.4845 14.3929 20.5599 12.1615 23.998 10.6545C27.4361 9.1474 31.1566 8.39991 34.9075 8.46263C35.8065 8.46263 36.7176 8.46263 37.6167 8.46263L37.6766 8.63116Z" fill="#060606"/>
<path d="M36.5378 16.8048C38.7637 16.7367 40.9523 17.3892 42.7806 18.6659C44.6089 19.9427 45.9799 21.7759 46.6912 23.895C47.1869 25.5784 47.1845 27.3702 46.6844 29.0522C46.1842 30.7343 45.2078 32.234 43.8741 33.3688C41.6642 35.2706 38.8067 36.239 35.9011 36.0706C32.9956 35.9023 30.2679 34.6104 28.2904 32.466C27.4684 31.5615 26.8393 30.4977 26.4417 29.3401C26.0442 28.1825 25.8866 26.9554 25.9787 25.7344C26.0707 24.5133 26.4105 23.3241 26.9771 22.2397C27.5437 21.1554 28.3251 20.1989 29.2734 19.429C31.3063 17.7133 33.8824 16.7828 36.5378 16.8048ZM35.9624 20.9819C34.955 21.199 33.9742 21.5259 33.0374 21.957C32.2003 22.3282 31.4833 22.9273 30.9677 23.6865C30.452 24.4457 30.1582 25.3346 30.1195 26.2528C30.0809 27.1709 30.2989 28.0816 30.7489 28.8818C31.1989 29.682 31.8629 30.3398 32.6658 30.7807C33.9309 31.5603 35.4025 31.9342 36.8846 31.8525C38.3667 31.7707 39.7887 31.2373 40.9611 30.3232C41.5174 29.899 41.9748 29.3579 42.3011 28.7376C42.6273 28.1174 42.8147 27.433 42.8501 26.7325C42.8855 26.0319 42.768 25.332 42.506 24.6818C42.2439 24.0316 41.8435 23.4467 41.3328 22.9681C39.8722 21.623 37.9429 20.9095 35.9624 20.9819Z" fill="#060606"/>
<path d="M49.3884 9.04044C49.6667 9.03536 49.9432 9.08728 50.2009 9.19303C50.4586 9.29877 50.6922 9.45614 50.8874 9.65551C51.0826 9.85489 51.2353 10.0921 51.3362 10.3527C51.437 10.6132 51.484 10.8917 51.4742 11.1711C51.4711 11.4493 51.4129 11.7241 51.3029 11.9794C51.1929 12.2347 51.0334 12.4655 50.8337 12.6583C50.6339 12.851 50.3979 13.0019 50.1395 13.102C49.8811 13.2022 49.6053 13.2497 49.3284 13.2417C49.0514 13.2385 48.7776 13.1806 48.5228 13.0712C48.2681 12.9618 48.0373 12.8031 47.8436 12.6041C47.6499 12.4052 47.4971 12.1698 47.394 11.9115C47.2909 11.6533 47.2395 11.3771 47.2426 11.0989C47.2388 10.8193 47.2925 10.5419 47.4003 10.284C47.508 10.0262 47.6676 9.7934 47.8689 9.60023C48.0703 9.40707 48.3091 9.25766 48.5705 9.16134C48.832 9.06503 49.1104 9.02387 49.3884 9.04044Z" fill="#060606"/>
<path d="M92.5191 54.8684C92.2407 54.8741 91.9641 54.8215 91.7071 54.7138C91.45 54.6061 91.2182 54.4457 91.0264 54.2429C90.8346 54.0401 90.6871 53.7993 90.5932 53.536C90.4993 53.2727 90.4612 52.9926 90.4813 52.7136C90.4995 52.1694 90.7246 51.6528 91.1102 51.27C91.4959 50.8872 92.0129 50.6671 92.5551 50.6552C93.1161 50.6856 93.6446 50.9287 94.034 51.3354C94.4234 51.742 94.6446 52.2819 94.6529 52.846C94.6194 53.3922 94.3803 53.9051 93.984 54.2807C93.5877 54.6563 93.064 54.8664 92.5191 54.8684Z" fill="#060606"/>
</g>
<defs>
<clipPath id="clip0_13_11">
<rect width="107" height="84" fill="white"/>
</clipPath>
</defs>
</svg>
