<svg width="70" height="84" viewBox="0 0 70 84" fill="none" xmlns="http://www.w3.org/2000/svg">
<g clip-path="url(#clip0_13_17)">
<path d="M29.08 0C31.2066 1.68752 32.6 4.13053 32.97 6.82001C33.3345 8.54912 33.3498 10.3337 33.0148 12.0688C32.6799 13.8039 32.0015 15.4545 31.0196 16.9237C30.0376 18.3929 28.7719 19.651 27.2968 20.6241C25.8217 21.5971 24.1671 22.2655 22.43 22.59C20.4701 23.0229 18.4362 22.9925 16.4902 22.5012C14.5441 22.0099 12.7395 21.0713 11.22 19.76C10.9605 19.5881 10.7448 19.358 10.5899 19.0881C10.4351 18.8182 10.3453 18.5159 10.3279 18.2051C10.3104 17.8944 10.3656 17.5839 10.4893 17.2983C10.6129 17.0127 10.8015 16.7599 11.04 16.56C13.7066 13.8933 16.3733 11.2267 19.04 8.56C19.1485 8.42009 19.2847 8.30404 19.4401 8.21906C19.5954 8.13407 19.7666 8.08199 19.943 8.06604C20.1193 8.05009 20.2971 8.07064 20.4652 8.12637C20.6333 8.18211 20.7881 8.27185 20.92 8.39001C21.0572 8.51497 21.1646 8.66913 21.2343 8.84113C21.304 9.01312 21.3342 9.19857 21.3227 9.38379C21.3112 9.56901 21.2582 9.74928 21.1678 9.91132C21.0773 10.0734 20.9516 10.213 20.8 10.32C18.42 12.72 16.03 15.1 13.65 17.49L13.09 18.07C15.1781 19.7668 17.8217 20.6281 20.5086 20.487C23.1955 20.3459 25.7343 19.2123 27.6331 17.306C29.5319 15.3998 30.6555 12.8565 30.7861 10.1691C30.9166 7.48164 30.045 4.84141 28.34 2.76001C27.43 3.69001 26.52 4.61 25.6 5.53C25.3981 5.74854 25.1809 5.95241 24.95 6.14001C24.7203 6.33924 24.4226 6.44212 24.1189 6.42722C23.8152 6.41231 23.529 6.28076 23.32 6.06C23.2007 5.95569 23.1041 5.82806 23.036 5.68497C22.968 5.54187 22.93 5.38635 22.9244 5.228C22.9187 5.06965 22.9456 4.91181 23.0033 4.76425C23.0611 4.61669 23.1484 4.4825 23.26 4.37C24.74 2.9 26.26 1.48002 27.78 0.0500183L29.08 0Z" fill="#060606"/>
<path d="M49.35 0C49.83 0.16 50.35 0.3 50.79 0.5C52.3033 1.06378 53.6334 2.03087 54.6364 3.29648C55.6394 4.56209 56.2769 6.078 56.48 7.68002C56.5469 8.1575 56.439 8.64306 56.1762 9.0473C55.9135 9.45155 55.5136 9.74725 55.05 9.88C52.3601 10.64 49.66 11.39 46.95 12.05C46.5876 12.1734 46.1974 12.1902 45.8257 12.0984C45.454 12.0065 45.1165 11.8099 44.8532 11.5319C44.59 11.2539 44.412 10.9062 44.3406 10.5301C44.2691 10.1539 44.3071 9.76518 44.45 9.41C45.1 6.86 45.81 4.32002 46.45 1.77002C46.5555 1.39601 46.7345 1.04679 46.9766 0.742859C47.2187 0.438925 47.5191 0.18637 47.86 0H49.35ZM47 9.47L53.9001 7.63C53.4901 5.05 51.05 2.63 48.83 2.63L47 9.47Z" fill="#060606"/>
<path d="M62.5699 50.3699C62.7731 50.4894 62.9919 50.5803 63.2199 50.6399C63.8999 50.6399 64.59 50.6399 65.27 50.6399C65.6592 50.6428 66.0437 50.7259 66.3994 50.8841C66.7551 51.0423 67.0743 51.2722 67.3372 51.5594C67.6 51.8466 67.8007 52.185 67.9268 52.5533C68.0528 52.9216 68.1016 53.3119 68.0699 53.6999C66.9033 67.2999 60.1866 77.0766 47.9199 83.0299C47.0113 83.462 46.016 83.6809 45.0099 83.6699C37.6599 83.6699 30.3099 83.6699 22.9499 83.6199C21.9539 83.6073 20.972 83.3824 20.0699 82.96C9.18327 77.7866 2.62328 69.2699 0.389947 57.4099C0.171218 56.151 0.0475403 54.8774 0.0199518 53.5999C-0.008756 53.212 0.0451488 52.8224 0.178124 52.4569C0.3111 52.0913 0.5201 51.7582 0.791345 51.4794C1.06259 51.2006 1.38992 50.9824 1.75167 50.8395C2.11342 50.6965 2.50138 50.6319 2.88995 50.65H5.60995C5.10125 49.8092 4.81097 48.8546 4.76556 47.873C4.72015 46.8914 4.92104 45.914 5.34994 45.0299C4.49121 44.2951 3.67647 43.5105 2.90994 42.68C1.58341 41.1209 0.691522 39.2395 0.324212 37.2256C-0.0430977 35.2118 0.127177 33.1367 0.817864 31.2097C1.50855 29.2827 2.6952 27.5718 4.25814 26.2498C5.82109 24.9278 7.70503 24.0414 9.71993 23.68C11.1803 23.3939 12.6827 23.3986 14.1412 23.6937C15.5997 23.9888 16.9857 24.5686 18.2199 25.4C18.4584 25.5854 18.7595 25.6714 19.06 25.6399C22.45 24.4199 25.4799 25.2499 28.3299 27.1699C28.7299 27.4399 29.1 27.7699 29.52 28.0899C29.9961 27.478 30.5105 26.8969 31.06 26.3499C31.7007 25.8534 32.3684 25.3927 33.06 24.9699C32.95 23.9699 32.77 22.9699 32.71 21.9699C32.4583 18.1794 33.7043 14.4414 36.18 11.5599C36.3593 11.2905 36.5996 11.0671 36.8814 10.9078C37.1632 10.7485 37.4786 10.6579 37.8019 10.6433C38.1253 10.6287 38.4475 10.6905 38.7425 10.8237C39.0376 10.9569 39.297 11.1577 39.4999 11.4099C41.3199 13.2099 43.1099 15.0399 44.9399 16.8799C45.4599 16.4499 45.9399 16.03 46.4199 15.68C48.1227 14.4051 50.1452 13.6266 52.2632 13.4307C54.3813 13.2347 56.5122 13.6291 58.4199 14.5699C59.0699 14.8599 59.5299 15.2799 59.4199 16.0699C59.3099 16.8599 58.4199 17.3 57.4199 16.83C56.2671 16.2337 54.9963 15.9011 53.6992 15.8561C52.4021 15.8112 51.1113 16.055 49.9199 16.5699C48.8163 17.1255 47.7506 17.7536 46.7299 18.4499L47.9199 19.7599C49.1489 18.5505 50.747 17.7867 52.46 17.5899C54.2358 17.3851 56.0256 17.8317 57.497 18.847C58.9683 19.8622 60.0212 21.377 60.46 23.1099C60.65 23.8399 60.89 24.2 61.68 24.02C61.9829 23.9988 62.287 23.9988 62.59 24.02C62.11 22.73 61.7 21.5799 61.24 20.4499C61.0829 20.1914 61.0209 19.8861 61.0647 19.5867C61.1085 19.2874 61.2553 19.0127 61.4799 18.8099C61.6782 18.616 61.9413 18.5025 62.2184 18.4914C62.4955 18.4804 62.7669 18.5725 62.9799 18.7499C63.1915 18.9186 63.3653 19.1298 63.49 19.3699C64.2858 20.7093 64.7742 22.2088 64.9199 23.7599C64.9163 24.0379 64.9925 24.311 65.1397 24.5468C65.2869 24.7826 65.4987 24.9711 65.7499 25.0899C66.951 25.8301 67.9073 26.9078 68.4996 28.1883C69.0918 29.4688 69.2937 30.8954 69.0799 32.2899C68.6699 34.9499 68.1799 36.0099 66.1299 38.7499C66.7299 39.2699 67.3699 39.7499 67.9099 40.3099C68.8169 41.1964 69.3397 42.4034 69.3659 43.6713C69.3921 44.9393 68.9195 46.1668 68.0499 47.0899C66.7194 48.5071 65.0015 49.5018 63.1099 49.9499L62.7299 50.0599L62.5699 50.3699ZM3.73995 60.7599C3.78995 60.9999 3.81995 61.1599 3.85995 61.3099C5.18057 65.6087 7.41342 69.5718 10.406 72.9285C13.3986 76.2852 17.0804 78.9565 21.1999 80.7599C21.8664 81.0485 22.5837 81.2015 23.31 81.21C30.53 81.21 37.7466 81.21 44.96 81.21C45.5277 81.2132 46.0898 81.0974 46.6099 80.8699C50.6865 79.1097 54.3445 76.5068 57.3434 73.2321C60.3423 69.9575 62.6142 66.0852 64.0099 61.8699C64.1299 61.5299 64.1899 61.17 64.2899 60.77H53.7299C52.7299 60.77 52.21 60.33 52.18 59.58C52.15 58.83 52.74 58.3199 53.74 58.3199H65.0299C65.1999 56.8799 65.41 55.57 65.52 54.24C65.6099 53.09 65.5199 53.0899 64.3799 53.0899H3.59994C3.37994 53.0899 3.12995 53.0199 2.95995 53.0899C2.78995 53.1599 2.45994 53.4299 2.47994 53.5899C2.61994 55.1499 2.80995 56.71 2.98995 58.3H46.9199C47.1664 58.285 47.4135 58.285 47.6599 58.3C47.9641 58.3154 48.2505 58.4479 48.4593 58.6697C48.668 58.8915 48.7829 59.1854 48.7799 59.49C48.7882 59.8059 48.6724 60.1125 48.4575 60.3442C48.2426 60.5759 47.9456 60.7144 47.6299 60.7299C47.3899 60.7299 47.14 60.7299 46.9 60.7299H3.73995V60.7599ZM50.2299 41.1699L52.71 38.65C54.15 37.2 55.58 35.7299 57.06 34.33C57.2369 34.1807 57.4429 34.0698 57.665 34.0044C57.8871 33.9389 58.1203 33.9204 58.3499 33.9499C58.5563 34.0217 58.7418 34.1432 58.89 34.3036C59.0383 34.4641 59.1447 34.6586 59.1999 34.8699C59.1826 35.3689 58.9793 35.8433 58.6299 36.1999C56.4499 38.4399 54.2199 40.6399 51.9699 42.8799L59.56 50.4799C59.66 50.5799 59.86 50.57 60.12 50.65L59.7899 49.93C59.2599 48.8 59.68 48.04 60.93 47.86C61.25 47.81 61.57 47.76 61.93 47.68C63.3503 47.4051 64.6781 46.7756 65.7899 45.8499C66.1179 45.6215 66.3858 45.3171 66.5709 44.9628C66.7559 44.6085 66.8525 44.2147 66.8525 43.8149C66.8525 43.4152 66.7559 43.0214 66.5709 42.6671C66.3858 42.3128 66.1179 42.0084 65.7899 41.7799C65.2384 41.2945 64.6226 40.8873 63.96 40.5699C62.25 39.7299 62.1299 39.05 63.4999 37.77C65.2654 36.2423 66.3755 34.0938 66.5999 31.77C66.6835 31.1533 66.6405 30.526 66.4736 29.9265C66.3066 29.327 66.0193 28.7678 65.629 28.2831C65.2388 27.7983 64.7539 27.3982 64.2038 27.1071C63.6538 26.816 63.0502 26.64 62.43 26.5899C59.43 26.2799 57.1299 27.6699 55.1899 29.7899C54.1899 30.9099 53.32 30.7899 52.62 29.4399C52.1555 28.5269 51.5628 27.6851 50.8599 26.9399C50.6742 26.7293 50.4474 26.5588 50.1936 26.4386C49.9398 26.3184 49.6642 26.2511 49.3836 26.2408C49.1029 26.2305 48.8231 26.2774 48.5612 26.3787C48.2992 26.48 48.0607 26.6335 47.8599 26.83C47.3237 27.2043 46.8849 27.7014 46.5799 28.2799C46.0206 29.535 45.5722 30.8366 45.24 32.1699C44.93 33.4299 44.2399 33.8499 43.0699 33.3099C42.5533 33.07 42.014 32.8824 41.46 32.7499C40.928 32.5987 40.3586 32.6524 39.8643 32.9005C39.3699 33.1486 38.9866 33.573 38.7899 34.0899C37.9999 35.8799 38.3599 37.6399 38.9199 39.4499C39.6399 38.3199 40.25 37.2299 40.99 36.2299C42.25 34.5299 43.5 34.4799 44.99 35.9699L50.2299 41.1699ZM38.06 31.0299C37.7161 29.8152 37.0202 28.7295 36.06 27.9099C35.6573 27.5213 35.1196 27.3042 34.56 27.3042C34.0004 27.3042 33.4626 27.5213 33.06 27.9099C32.3103 28.5743 31.7133 29.393 31.31 30.3099C31.2553 30.6077 31.1101 30.8813 30.8941 31.0934C30.6781 31.3055 30.4019 31.4457 30.1032 31.495C29.8045 31.5442 29.4979 31.5 29.2253 31.3685C28.9526 31.2369 28.7273 31.0244 28.5799 30.7599C27.2258 29.0966 25.3142 27.9809 23.1999 27.6199C22.4571 27.4243 21.6778 27.4122 20.9292 27.5846C20.1806 27.7569 19.4851 28.1087 18.9026 28.6095C18.3201 29.1103 17.868 29.7452 17.5854 30.4595C17.3027 31.1738 17.1979 31.9462 17.2799 32.71C17.3574 33.8927 17.6738 35.0475 18.2101 36.1045C18.7463 37.1615 19.4913 38.0989 20.4 38.8599C21.68 40.0499 21.5299 40.7799 19.9699 41.5899C19.1077 42.038 18.3187 42.6146 17.6299 43.3C17.2839 43.6184 17.0612 44.0485 17.0008 44.5149C16.9405 44.9812 17.0464 45.4539 17.2999 45.8499C18.0073 46.9731 19.0868 47.812 20.3499 48.2199C22.6999 43.4799 22.7099 43.4699 28.2799 40.4399C28.2799 40.4399 28.2799 40.33 28.2199 40.3C27.2133 39.2733 26.1966 38.2499 25.1699 37.2299C24.4499 36.4899 24.38 35.7999 24.96 35.2299C25.54 34.6599 26.25 34.79 26.96 35.49C28.33 36.86 29.6899 38.2299 31.0699 39.5899C31.2431 39.7924 31.4676 39.9444 31.7199 40.0299C33.4499 40.3899 35.1799 40.7099 36.8499 41.0299C35.7599 37.6999 34.97 34.18 38.06 31.05V31.0299ZM42.9999 30.49C43.8699 27.49 45.0999 24.9 48.1399 23.93L37.71 13.49C36.5041 15.0211 35.6817 16.8183 35.3112 18.7317C34.9407 20.6451 35.0328 22.6194 35.5799 24.49C35.6139 24.6257 35.6759 24.7528 35.762 24.863C35.8482 24.9732 35.9565 25.0642 36.0799 25.1299C36.9541 25.484 37.7456 26.015 38.4047 26.6896C39.0638 27.3642 39.5763 28.1678 39.9099 29.05C40.2699 29.89 40.6299 30.3899 41.6299 30.2599C42.0959 30.2797 42.557 30.3639 42.9999 30.5099V30.49ZM17.81 39.8199C16.5622 38.4274 15.6338 36.7789 15.09 34.99C15.0047 34.8787 14.8938 34.7896 14.7667 34.7304C14.6396 34.6712 14.5 34.6436 14.3599 34.65C13.7065 34.7295 13.093 35.0067 12.6015 35.4446C12.11 35.8824 11.7641 36.46 11.6099 37.0999C11.2366 38.5914 11.4365 40.1687 12.1699 41.52C12.7099 42.66 12.3899 43.29 11.1699 43.6399C10.4732 43.8288 9.80172 44.1007 9.16995 44.4499C8.66405 44.6969 8.22562 45.0629 7.89227 45.5165C7.55891 45.9702 7.34057 46.4979 7.25601 47.0545C7.17144 47.611 7.22317 48.1798 7.40673 48.712C7.5903 49.2442 7.90025 49.7239 8.30996 50.11C8.59941 50.405 8.98748 50.583 9.39996 50.61C11.14 50.66 12.88 50.61 14.62 50.61H19.4C13.33 47.93 13.15 42.7599 17.81 39.8399V39.8199ZM8.51995 41.9C7.63286 41.466 6.83993 40.8614 6.18646 40.121C5.53298 39.3805 5.03175 38.5187 4.71139 37.5845C4.39102 36.6503 4.25781 35.6622 4.31933 34.6765C4.38085 33.6909 4.6359 32.727 5.06994 31.8399C5.86366 30.1763 7.26204 28.8781 8.97994 28.21C10.0495 27.7718 11.2064 27.5888 12.359 27.6756C13.5116 27.7624 14.6281 28.1166 15.62 28.71L16.5499 27.3499C15.527 26.7176 14.3894 26.293 13.2023 26.1003C12.0152 25.9076 10.8018 25.9506 9.63131 26.2269C8.46083 26.5031 7.35621 27.0072 6.38055 27.7104C5.40488 28.4135 4.57725 29.3019 3.94494 30.3249C3.31262 31.3479 2.888 32.4855 2.69531 33.6726C2.50261 34.8597 2.54561 36.0731 2.82186 37.2436C3.09812 38.4141 3.6022 39.5187 4.30535 40.4943C5.0085 41.47 5.89695 42.2976 6.91995 42.93L8.51995 41.9ZM40.6299 50.5899C40.4888 49.3945 40.1128 48.2387 39.5237 47.1889C38.9346 46.1392 38.1439 45.2161 37.1971 44.4728C36.2503 43.7294 35.1659 43.1804 34.0063 42.8573C32.8467 42.5342 31.6347 42.4433 30.4399 42.5899C26.3599 43.0199 22.31 47.1199 22.59 50.5899H24.1099C25.4499 46.4399 27.9199 44.3099 31.4099 44.2599C32.9992 44.2237 34.5573 44.7045 35.8499 45.6299C36.6771 46.2132 37.3792 46.9561 37.9151 47.8148C38.4509 48.6734 38.8095 49.6306 38.9699 50.6299L40.6299 50.5899ZM43.0399 37.68C41.6181 39.4317 40.7326 41.5569 40.49 43.8C40.4752 44.0384 40.5422 44.2747 40.68 44.4699C42.0772 46.2323 42.9474 48.354 43.1899 50.5899H45.9999C44.8985 49.14 44.2857 47.378 44.2498 45.5575C44.2138 43.7371 44.7566 41.9522 45.7999 40.46L43.0399 37.68ZM47.6699 42.3399C45.8099 44.7599 46.8999 49.2199 49.7299 50.5099C49.9572 50.5924 50.1984 50.6298 50.4399 50.6199C51.9399 50.6199 53.44 50.6199 54.93 50.6199C55.2133 50.596 55.4942 50.5492 55.77 50.4799L47.6699 42.3399ZM49.87 21.4699L54.87 26.4699C55.87 25.9399 56.87 25.4 57.87 24.8C57.9722 24.7151 58.0534 24.6078 58.1071 24.4864C58.1609 24.3649 58.1858 24.2326 58.18 24.0999C58.0274 23.199 57.6264 22.3586 57.0222 21.6731C56.418 20.9877 55.6346 20.4844 54.7599 20.2199C53.9155 19.9543 53.0132 19.9326 52.1569 20.1573C51.3006 20.382 50.5252 20.8439 49.9199 21.49L49.87 21.4699ZM8.86996 39.0699C9.35996 34.2699 10.5299 32.8599 14.6299 32.0699C15.0299 31.3299 14.6299 30.9899 14.0099 30.6899C12.9218 30.1345 11.668 29.9967 10.4852 30.3026C9.30237 30.6084 8.2725 31.3367 7.58996 32.3499C6.06996 34.6599 6.91995 38.0599 8.91995 39.0899L8.86996 39.0699ZM26.7899 50.5899H36.2999C36.0604 49.5073 35.4586 48.5388 34.594 47.8446C33.7294 47.1504 32.6538 46.772 31.5449 46.772C30.4361 46.772 29.3605 47.1504 28.4959 47.8446C27.6313 48.5388 27.0295 49.5073 26.7899 50.5899Z" fill="#060606"/>
<path d="M25.1299 16.23C24.8109 16.1225 24.5056 15.9782 24.2199 15.8C23.7529 15.3879 23.3121 14.947 22.9 14.48C22.792 14.3666 22.7084 14.2323 22.6543 14.0853C22.6001 13.9384 22.5765 13.782 22.5849 13.6256C22.5933 13.4693 22.6336 13.3163 22.7033 13.176C22.7729 13.0358 22.8705 12.9112 22.9899 12.81C23.0888 12.6961 23.2098 12.6036 23.3457 12.5381C23.4815 12.4725 23.6292 12.4353 23.7799 12.4288C23.9306 12.4222 24.081 12.4465 24.222 12.5C24.363 12.5535 24.4916 12.6352 24.5999 12.74C25.1111 13.136 25.5653 13.6003 25.9499 14.12C26.0584 14.3092 26.1269 14.5187 26.151 14.7355C26.175 14.9522 26.1543 15.1716 26.09 15.38C25.92 15.76 25.4599 15.95 25.1299 16.23Z" fill="#060606"/>
<path d="M26.4199 10.96C26.1199 10.96 25.8199 10.96 25.5199 10.96C25.2148 10.9548 24.9238 10.8306 24.709 10.6139C24.4942 10.3972 24.3725 10.1052 24.3699 9.80004C24.3506 9.48385 24.456 9.17267 24.6635 8.93334C24.8711 8.69402 25.1642 8.54563 25.4799 8.52004C26.1056 8.47004 26.7343 8.47004 27.3599 8.52004C27.6756 8.54056 27.9712 8.68189 28.1853 8.91467C28.3995 9.14745 28.5157 9.45379 28.5099 9.77004C28.5099 10.0857 28.3846 10.3883 28.1614 10.6115C27.9382 10.8347 27.6355 10.96 27.3199 10.96C27.0199 10.96 26.7199 10.96 26.4199 10.96Z" fill="#060606"/>
<path d="M21.07 16.05C21.1054 16.4025 21.1054 16.7576 21.07 17.11C21.023 17.4098 20.8633 17.6802 20.6235 17.8661C20.3837 18.0519 20.082 18.1392 19.78 18.11C19.489 18.1155 19.2075 18.0064 18.9961 17.8062C18.7847 17.6061 18.6605 17.3309 18.65 17.04C18.6001 16.4177 18.6001 15.7924 18.65 15.17C18.6439 15.0117 18.6713 14.8539 18.7306 14.707C18.7899 14.5601 18.8797 14.4275 18.9941 14.3179C19.1084 14.2082 19.2448 14.1241 19.394 14.071C19.5433 14.018 19.7021 13.9972 19.86 14.01C20.0232 14.0061 20.1856 14.0346 20.3376 14.094C20.4897 14.1534 20.6284 14.2425 20.7457 14.356C20.863 14.4696 20.9564 14.6053 21.0207 14.7554C21.085 14.9055 21.1188 15.0668 21.12 15.23C21.135 15.4998 21.135 15.7702 21.12 16.04L21.07 16.05Z" fill="#060606"/>
<path d="M44.12 25.49C43.9911 25.8391 43.8269 26.1742 43.63 26.49C43.2154 26.9579 42.7748 27.4019 42.31 27.82C42.1981 27.9473 42.0612 28.0504 41.9079 28.1227C41.7545 28.1951 41.588 28.2352 41.4185 28.2407C41.2491 28.2461 41.0803 28.2168 40.9226 28.1544C40.7649 28.0921 40.6218 27.998 40.5019 27.8781C40.382 27.7583 40.2879 27.615 40.2256 27.4574C40.1632 27.2997 40.1339 27.1309 40.1393 26.9615C40.1448 26.792 40.1849 26.6254 40.2573 26.4721C40.3296 26.3188 40.4327 26.1819 40.56 26.07C40.9716 25.5598 41.4453 25.1029 41.97 24.71C42.1588 24.6009 42.3675 24.5305 42.5839 24.5031C42.8002 24.4756 43.0199 24.4915 43.23 24.55C43.59 24.68 43.82 25.15 44.12 25.49Z" fill="#060606"/>
<path d="M40.0401 22.35C39.7071 22.3709 39.3731 22.3709 39.0401 22.35C38.7236 22.3246 38.429 22.1786 38.2169 21.9424C38.0048 21.7061 37.8914 21.3975 37.9001 21.0801C37.8961 20.929 37.9219 20.7787 37.9761 20.6376C38.0302 20.4966 38.1116 20.3676 38.2156 20.258C38.3196 20.1484 38.4442 20.0604 38.5823 19.999C38.7203 19.9376 38.8691 19.904 39.0201 19.9001C39.6861 19.8564 40.3542 19.8564 41.0201 19.9001C41.178 19.8973 41.3348 19.9265 41.4811 19.986C41.6274 20.0455 41.7601 20.1339 41.8713 20.246C41.9825 20.3581 42.0698 20.4916 42.128 20.6384C42.1863 20.7852 42.2142 20.9422 42.2101 21.1C42.2114 21.2642 42.1804 21.427 42.1188 21.5792C42.0572 21.7313 41.9662 21.8699 41.8511 21.9869C41.7359 22.1039 41.5989 22.1971 41.4477 22.2611C41.2965 22.3251 41.1343 22.3588 40.9701 22.3601C40.6401 22.3601 40.3201 22.3601 39.9701 22.3601L40.0401 22.35Z" fill="#060606"/>
</g>
<defs>
<clipPath id="clip0_13_17">
<rect width="69.32" height="83.67" fill="white"/>
</clipPath>
</defs>
</svg>
