<svg width="86" height="85" viewBox="0 0 86 85" fill="none" xmlns="http://www.w3.org/2000/svg">
<g clip-path="url(#clip0_13_26)">
<path d="M86.0001 51.8585V54.7126C85.6792 56.2394 85.0239 57.6764 84.0813 58.9207C84.0261 59.0346 83.9974 59.1596 83.9974 59.2861C83.9974 59.4127 84.0261 59.5376 84.0813 59.6516C84.7679 60.93 85.0124 62.399 84.7769 63.8304C84.5415 65.2618 83.8391 66.5756 82.779 67.5677C82.5136 67.8674 82.3539 68.2457 82.3243 68.6447C82.2704 70.3525 82.4322 72.0681 82.2473 73.7528C82.1432 75.2763 81.7837 76.7716 81.1838 78.1763C78.9645 82.7921 75.1114 85.0231 70.01 85.0231C52.2397 85.0231 34.4695 85.0231 16.6992 85.0231C15.7753 85.0232 14.852 84.977 13.9327 84.8846C11.1927 84.5352 8.66446 83.2303 6.7947 81.2005C4.92494 79.1706 3.83395 76.5464 3.71446 73.7913C3.71446 71.8142 3.71446 69.8294 3.67593 67.8446C3.6696 67.4913 3.56269 67.1471 3.36769 66.8522C2.64832 65.9196 2.18707 64.8148 2.03018 63.6482C1.8733 62.4816 2.02627 61.2944 2.47378 60.2055C2.51225 60.0621 2.51697 59.9118 2.48756 59.7663C2.45815 59.6208 2.3954 59.4841 2.30424 59.3669C-1.5488 55.3666 -0.631782 47.912 5.15549 45.381C5.29166 45.2979 5.40781 45.186 5.49572 45.053C5.58362 44.92 5.64111 44.7694 5.6641 44.6117C5.71804 43.5501 5.6641 42.4885 5.6641 41.4268C5.68857 41.1963 5.64097 40.9638 5.52783 40.7613C5.41469 40.5588 5.24156 40.3963 5.03219 40.296C3.6921 39.4559 2.6955 38.1669 2.22103 36.6599C1.74655 35.1529 1.82522 33.5265 2.44295 32.0721C2.57101 31.7272 2.57101 31.3478 2.44295 31.0028C1.95203 29.9263 1.81969 28.7211 2.06535 27.564C3.0714 22.6479 5.35418 18.0821 8.68489 14.3244C13.1831 9.22824 18.9251 5.38022 25.3532 3.15413C33.6648 0.116563 42.6249 -0.710584 51.3535 0.753919C58.8798 1.84761 66.0032 4.83665 72.0521 9.4393C77.9704 14.0551 82.1933 19.771 83.7576 27.2255C83.8694 28.2663 83.8694 29.3159 83.7576 30.3566C83.7151 30.6382 83.7415 30.926 83.8347 31.1951C84.3344 32.0158 84.6521 32.9339 84.7661 33.8876C84.8802 34.8412 84.788 35.8082 84.4959 36.7232C84.2037 37.6383 83.7184 38.4802 83.0726 39.192C82.4268 39.9039 81.6355 40.4692 80.7523 40.8499C80.6264 40.9298 80.5202 41.037 80.4415 41.1635C80.3628 41.29 80.3136 41.4326 80.2976 41.5807C80.236 42.5039 80.2976 43.427 80.2591 44.3425C80.212 44.6017 80.2655 44.8692 80.4086 45.0906C80.5517 45.312 80.7737 45.4708 81.0297 45.5349C82.573 46.1668 83.8555 47.3033 84.667 48.7583C85.1674 49.7668 85.6124 50.8017 86.0001 51.8585ZM43.0078 30.7489H78.2709C79.8738 30.7489 80.9064 29.6488 80.5827 28.2103C80.0084 25.4463 78.966 22.8004 77.5003 20.3865C73.8476 14.409 68.5612 10.2932 62.2576 7.4776C53.8005 3.71175 44.4175 2.52347 35.2863 4.0619C28.2509 5.03986 21.5866 7.81126 15.9363 12.1088C10.7501 16.1245 7.02037 21.1404 5.50998 27.641C5.0322 29.7104 5.83363 30.7182 7.9451 30.7182L43.0078 30.7489ZM7.12825 69.3217C7.12825 70.9526 7.03578 72.545 7.12825 74.1221C7.25138 75.6629 7.83984 77.1302 8.81589 78.3302C9.66375 79.4094 10.7583 80.2702 12.0079 80.8404C13.2574 81.4106 14.6257 81.6736 15.998 81.6074C33.9789 81.6074 51.9597 81.6074 69.9406 81.6074C70.3568 81.6074 70.7806 81.6074 71.1967 81.5689C72.7944 81.4586 74.322 80.8717 75.5815 79.8841C79.1186 77.1916 79.1032 73.4066 78.8566 69.7756C77.4849 69.514 76.2442 69.2601 75.0035 69.0524C74.165 68.8851 73.3148 68.7822 72.4605 68.7447C70.8422 68.6985 69.6401 69.6755 68.3917 70.5218C66.4199 71.894 63.9904 72.4458 61.618 72.0604C59.8825 71.7455 58.2533 71.0023 56.8788 69.8986C55.6202 68.9692 54.0587 68.5438 52.5017 68.7062C51.1788 68.9293 49.9393 69.5002 48.9107 70.3602C47.8972 71.0832 46.7501 71.5983 45.5357 71.8756C44.3214 72.1529 43.0641 72.1869 41.8365 71.9757C40.1076 71.625 38.4863 70.8711 37.105 69.7756C35.8612 68.9023 34.338 68.5187 32.8281 68.6985C31.4993 68.9031 30.252 69.4671 29.2216 70.3295C27.6253 71.4791 25.7108 72.1054 23.7426 72.1219C21.4607 72.0881 19.2567 71.2888 17.4852 69.8525C16.7104 69.2493 15.7949 68.8524 14.8244 68.699C13.854 68.5456 12.8604 68.6408 11.9369 68.9755C10.4034 69.5662 8.72596 69.6762 7.12825 69.2909V69.3217ZM5.44833 34.1416C5.02449 35.0109 5.77969 36.8033 7.11285 37.5419C8.446 38.2804 9.91015 37.9958 11.3204 37.5419C12.8312 36.9946 14.4805 36.9595 16.0134 37.4419C17.468 37.9846 18.8605 38.6809 20.167 39.519C20.9719 40.0812 21.9011 40.4406 22.8753 40.5665C23.8495 40.6924 24.8398 40.5811 25.7616 40.2421C26.6536 39.8441 27.4987 39.3487 28.2815 38.7651C30.1746 37.491 32.4659 36.9444 34.7315 37.2265C36.6426 37.5276 38.4413 38.3233 39.9485 39.5344C40.7289 40.1106 41.643 40.4799 42.6052 40.6077C43.5675 40.7355 44.5464 40.6177 45.4507 40.2652C46.3449 39.8746 47.1905 39.3815 47.9705 38.7958C49.0522 38.0147 50.2981 37.4902 51.6135 37.2623C52.9288 37.0343 54.2789 37.1089 55.5611 37.4803C57.0038 37.979 58.3724 38.6699 59.6299 39.5344C60.4356 40.0948 61.3647 40.4531 62.3386 40.579C63.3125 40.7049 64.3024 40.5946 65.2245 40.2575C66.0691 39.8907 66.866 39.4232 67.598 38.865C68.5508 38.1749 69.631 37.6796 70.7762 37.4076C71.9215 37.1356 73.1094 37.0923 74.2714 37.2803C75.3118 37.4572 76.3136 37.8496 77.3539 38.0034C80.0202 38.3881 82.1471 35.9186 81.2686 33.7107C80.1713 33.9187 79.062 34.0574 77.9472 34.1262C53.7912 34.1518 29.6249 34.1467 5.44833 34.1108V34.1416ZM81.1992 61.5132C79.5988 61.7714 77.9861 61.946 76.3675 62.0364C67.1895 62.0826 58.0116 62.0364 48.8413 62.0826C48.3607 62.1122 47.9031 62.2987 47.539 62.6134C46.7145 63.3211 45.9978 64.152 45.2272 64.9213C44.2177 65.8983 43.3777 65.906 42.3759 64.9597C41.3741 64.0135 40.5033 62.6518 39.2935 62.2056C38.0836 61.7594 36.4808 62.0902 35.0551 62.0902C30.1618 62.0902 25.2684 62.1518 20.375 62.0902C15.4817 62.0287 10.5498 62.4826 5.6564 61.7056C5.40376 62.3375 5.36255 63.034 5.53893 63.6911C5.71531 64.3483 6.09981 64.9309 6.63506 65.3521C7.16652 65.7839 7.80372 66.0665 8.481 66.1706C9.15828 66.2747 9.85113 66.1967 10.4881 65.9444C12.0227 65.3751 13.6775 65.2063 15.2958 65.454C16.9141 65.7017 18.4422 66.3577 19.7354 67.3599C22.5096 69.337 24.7829 69.2524 27.6188 67.3599C28.6441 66.6393 29.7678 66.0693 30.9555 65.6675C32.2944 65.2514 33.7123 65.1536 35.0958 65.3821C36.4793 65.6105 37.7901 66.1587 38.9236 66.983C39.609 67.5092 40.3539 67.9533 41.1429 68.3062C42.0784 68.6851 43.0936 68.8259 44.0972 68.7158C45.1007 68.6057 46.061 68.2481 46.8917 67.6754C48.0447 66.8505 49.3013 66.1806 50.6292 65.6829C53.7116 64.7212 56.6014 65.4598 59.2446 67.3599C61.8878 69.2601 64.2612 69.214 67.0586 67.3599C68.0919 66.6513 69.2104 66.0749 70.3876 65.6444C72.499 64.9136 74.6105 65.3367 76.7066 65.9829C77.3996 66.2296 78.1528 66.2523 78.8595 66.048C79.5662 65.8437 80.1907 65.4226 80.6444 64.8443C81.0723 64.4092 81.3552 63.8527 81.4545 63.251C81.5538 62.6493 81.4647 62.0317 81.1992 61.4825V61.5132ZM51.6001 58.6207H70.0177C72.6224 58.6207 75.227 58.6207 77.8239 58.5822C78.5313 58.5463 79.2232 58.3627 79.855 58.0431C80.4868 57.7236 81.0444 57.2752 81.4917 56.7271C81.9391 56.179 82.2663 55.5432 82.4522 54.861C82.6381 54.1787 82.6785 53.4651 82.5709 52.7663C82.1779 49.743 80.1974 48.1043 77.0379 48.0966C72.3372 48.0966 67.6365 48.0966 62.9358 48.0966C62.4517 48.1175 61.9905 48.3082 61.6335 48.6352C58.4894 51.7124 55.3838 54.7896 52.2628 57.8668C52.0933 58.0514 51.9315 58.236 51.6001 58.5899V58.6207ZM29.7533 52.5047L25.5304 56.6974C24.2127 58.013 23.4498 58.013 22.1397 56.6974C19.4272 53.9972 16.7455 51.3123 13.9944 48.589C13.7072 48.3051 13.3326 48.1262 12.9309 48.0813C11.513 48.0197 10.0797 48.0813 8.65407 48.0813C7.9109 48.0519 7.1706 48.1894 6.48774 48.4837C5.80488 48.7779 5.19687 49.2214 4.70854 49.7814C4.01052 50.5377 3.55242 51.4834 3.39197 52.4993C3.23152 53.5151 3.3759 54.5556 3.80693 55.4896C4.17115 56.4358 4.82557 57.2428 5.6767 57.7954C6.52784 58.3481 7.53215 58.6181 8.54618 58.5668C17.475 58.5668 26.4038 58.5668 35.3326 58.5668C35.4731 58.5569 35.6125 58.5337 35.7487 58.4976L29.7533 52.5047ZM56.7863 48.189H30.5856L43.8863 61.4594L56.7863 48.189ZM9.11643 44.6194H76.9301V43.0808C76.9301 41.5422 76.93 41.5422 75.5198 41.1037C75.1962 41.0037 74.8802 40.8806 74.5566 40.8037C73.7489 40.5712 72.9005 40.5154 72.0693 40.6402C71.2381 40.765 70.4437 41.0675 69.7403 41.5268L68.2838 42.5115C66.2267 43.8577 63.7224 44.3439 61.3098 43.8655C59.6463 43.4805 58.0901 42.7287 56.7555 41.6653C55.7398 40.9319 54.5182 40.5372 53.2646 40.5372C52.0111 40.5372 50.7895 40.9319 49.7738 41.6653L48.5254 42.5115C46.487 43.8331 44.0143 44.313 41.6284 43.8501C39.9606 43.4767 38.3986 42.7325 37.0587 41.673C36.0439 40.9374 34.822 40.5412 33.5679 40.5412C32.3137 40.5412 31.0918 40.9374 30.077 41.673L28.8286 42.5115C26.7844 43.8542 24.2944 44.343 21.8931 43.8732C20.2511 43.5162 18.7153 42.7812 17.4082 41.7268C16.3947 40.9077 15.0998 40.5182 13.8017 40.6422C12.2605 40.8576 10.7193 41.2191 9.17808 41.5191L9.11643 44.6194ZM27.4877 49.9584C27.0355 49.6005 26.6081 49.2124 26.2085 48.7967C26 48.5391 25.7295 48.3384 25.4223 48.2133C25.1151 48.0882 24.7811 48.0427 24.4516 48.0813C23.2571 48.1274 22.055 48.0813 20.8605 48.0813H18.6412L24.0354 53.4202L27.4877 49.9584Z" fill="#060606"/>
<path d="M49.9201 7.23914C52.232 7.83919 54.5438 8.34692 56.8556 9.06237C61.9558 10.6077 66.6186 13.3331 70.4646 17.0169C72.7444 19.173 74.5773 21.7555 75.8589 24.6176C75.9834 24.8211 76.0638 25.0485 76.0946 25.285C76.1254 25.5216 76.106 25.7619 76.0377 25.9905C75.9694 26.219 75.8536 26.4306 75.698 26.6116C75.5424 26.7926 75.3504 26.9389 75.1345 27.0409C74.9212 27.1452 74.688 27.2027 74.4505 27.2095C74.2131 27.2163 73.977 27.1724 73.758 27.0806C73.539 26.9888 73.3422 26.8512 73.1809 26.6772C73.0196 26.5031 72.8974 26.2967 72.8227 26.0716C69.9637 19.9172 64.9393 16.0707 58.8977 13.4243C56.1115 12.2054 53.1796 11.3495 50.1745 10.8779C49.8975 10.8393 49.6243 10.7775 49.3576 10.6933C48.9659 10.5784 48.6271 10.3298 48.4004 9.99097C48.1736 9.6521 48.0733 9.24447 48.1169 8.83927C48.2105 8.417 48.4352 8.035 48.7589 7.74768C49.0827 7.46035 49.4891 7.28238 49.9201 7.23914Z" fill="#060606"/>
<path d="M41.1737 16.4168C41.18 16.6402 41.141 16.8625 41.0592 17.0705C40.9773 17.2785 40.8543 17.4679 40.6975 17.6273C40.5407 17.7868 40.3532 17.913 40.1464 17.9984C39.9396 18.0839 39.7176 18.1268 39.4938 18.1247C39.0651 18.0986 38.6612 17.9153 38.3597 17.61C38.0581 17.3047 37.8802 16.899 37.8601 16.4707C37.8616 16.0341 38.0313 15.6149 38.334 15.2998C38.6367 14.9847 39.0492 14.798 39.4861 14.7782C39.7063 14.7688 39.9262 14.8043 40.1322 14.8827C40.3381 14.9611 40.5259 15.0807 40.6839 15.2342C40.842 15.3876 40.9669 15.5716 41.0511 15.775C41.1354 15.9784 41.1771 16.1968 41.1737 16.4168Z" fill="#060606"/>
<path d="M26.4935 14.7782C26.7168 14.7752 26.9384 14.8162 27.1458 14.8989C27.3532 14.9817 27.5421 15.1045 27.7018 15.2603C27.8615 15.4161 27.9887 15.6019 28.0763 15.807C28.1638 16.0121 28.2099 16.2324 28.2119 16.4553C28.1949 16.8913 28.0143 17.305 27.706 17.6143C27.3976 17.9235 26.9841 18.1057 26.5474 18.1247C26.1099 18.1309 25.6875 17.9649 25.3716 17.6625C25.0558 17.3602 24.8719 16.9458 24.8598 16.5092C24.8449 16.2865 24.8763 16.0631 24.9518 15.853C25.0273 15.643 25.1454 15.4507 25.2988 15.2883C25.4521 15.1258 25.6373 14.9967 25.8429 14.9089C26.0484 14.8212 26.2699 14.7767 26.4935 14.7782Z" fill="#060606"/>
<path d="M43.8477 8.00839C43.8477 8.45797 43.6693 8.88924 43.3516 9.20786C43.0339 9.52648 42.6027 9.7065 42.1524 9.70853C41.7159 9.68555 41.304 9.49954 40.9985 9.18743C40.693 8.87533 40.5162 8.45995 40.5033 8.02376C40.5011 7.80066 40.5441 7.57942 40.6298 7.37335C40.7155 7.16729 40.842 6.98067 41.0019 6.82471C41.1617 6.66875 41.3515 6.54669 41.5598 6.46586C41.7681 6.38504 41.9906 6.34712 42.214 6.3544C42.4305 6.35437 42.6449 6.3973 42.8446 6.4807C43.0443 6.5641 43.2255 6.68631 43.3775 6.84021C43.5295 6.99411 43.6493 7.17664 43.7301 7.37718C43.8108 7.57772 43.8508 7.79228 43.8477 8.00839Z" fill="#060606"/>
<path d="M48.7411 23.856C48.7421 24.0718 48.7004 24.2857 48.6184 24.4854C48.5364 24.6851 48.4156 24.8667 48.2631 25.0197C48.1106 25.1726 47.9293 25.294 47.7296 25.3768C47.53 25.4597 47.3159 25.5023 47.0997 25.5023C46.8801 25.5023 46.6627 25.4591 46.4598 25.3752C46.2569 25.2913 46.0726 25.1684 45.9173 25.0134C45.762 24.8583 45.6388 24.6743 45.5548 24.4718C45.4708 24.2692 45.4275 24.0522 45.4275 23.8329C45.4275 23.6137 45.4708 23.3966 45.5548 23.1941C45.6388 22.9915 45.762 22.8075 45.9173 22.6525C46.0726 22.4975 46.2569 22.3745 46.4598 22.2906C46.6627 22.2067 46.8801 22.1635 47.0997 22.1635C47.3205 22.1612 47.5394 22.2039 47.7432 22.2888C47.9469 22.3738 48.1312 22.4992 48.2848 22.6576C48.4384 22.816 48.558 23.0039 48.6365 23.2099C48.715 23.416 48.7505 23.6358 48.7411 23.856Z" fill="#060606"/>
<path d="M35.2014 24.3407C34.766 24.3428 34.3472 24.1737 34.0357 23.8699C33.7242 23.5661 33.545 23.1521 33.5369 22.7175C33.5328 22.4939 33.5732 22.2718 33.6556 22.0639C33.738 21.856 33.8608 21.6665 34.017 21.5063C34.1732 21.346 34.3597 21.2183 34.5656 21.1304C34.7715 21.0425 34.9929 20.9963 35.2168 20.9943C35.6687 21.0102 36.0968 21.2001 36.4114 21.5242C36.7261 21.8484 36.9028 22.2815 36.9045 22.7329C36.8808 23.1676 36.691 23.5767 36.3741 23.8758C36.0573 24.175 35.6375 24.3414 35.2014 24.3407Z" fill="#060606"/>
<path d="M18.4407 24.3407C18.2246 24.3469 18.0094 24.3099 17.8078 24.2321C17.6062 24.1542 17.4221 24.037 17.2664 23.8873C17.1107 23.7376 16.9865 23.5584 16.901 23.3602C16.8155 23.1619 16.7704 22.9487 16.7685 22.7329C16.7602 22.5101 16.7966 22.2879 16.8754 22.0793C16.9542 21.8707 17.0739 21.6799 17.2274 21.518C17.381 21.3561 17.5653 21.2264 17.7697 21.1365C17.974 21.0465 18.1943 20.9982 18.4176 20.9943C18.8682 21.0061 19.2968 21.1911 19.6141 21.5107C19.9314 21.8303 20.1128 22.2599 20.1206 22.7098C20.1029 23.1446 19.9188 23.5561 19.6063 23.8595C19.2938 24.1629 18.8766 24.3352 18.4407 24.3407Z" fill="#060606"/>
</g>
<defs>
<clipPath id="clip0_13_26">
<rect width="86" height="85" fill="white"/>
</clipPath>
</defs>
</svg>
