<svg width="88" height="88" viewBox="0 0 88 88" fill="none" xmlns="http://www.w3.org/2000/svg">
<g clip-path="url(#clip0_13_35)">
<path d="M14.4785 55.45C14.6047 53.6455 15.4301 51.9613 16.7794 50.7551C23.5665 44.0325 30.339 37.2703 37.0971 30.4682C41.699 25.8709 46.3009 21.2772 50.9028 16.6871C54.1588 13.4342 58.1312 13.4342 61.3655 16.6871C64.5998 19.9399 68.0621 23.3662 71.405 26.7166C74.7479 30.0671 74.661 34.0789 71.405 37.3968L37.401 71.2154C34.145 74.414 30.1184 74.414 26.9057 71.2154C23.5122 67.8397 20.1259 64.4567 16.7469 61.0666C15.9753 60.3572 15.3714 59.4851 14.9791 58.5137C14.5867 57.5422 14.4157 56.4957 14.4785 55.45ZM32.1263 70.76C32.7604 70.7463 33.3849 70.6014 33.9603 70.3346C34.5356 70.0677 35.0494 69.6846 35.4691 69.2095L58.0769 46.7107C61.9335 42.8868 65.7865 39.0666 69.6359 35.2499C70.0604 34.8874 70.4072 34.443 70.6555 33.9433C70.9038 33.4436 71.0485 32.899 71.081 32.342C71.1134 31.7851 71.0329 31.2274 70.8442 30.7023C70.6556 30.1772 70.3627 29.6956 69.9832 29.2864C66.3654 25.5565 62.6896 21.8844 58.956 18.2701C58.5659 17.8702 58.096 17.5566 57.5769 17.3495C57.0578 17.1424 56.5009 17.0466 55.9424 17.068C55.3838 17.0895 54.836 17.2278 54.3343 17.4741C53.8326 17.7204 53.3883 18.0691 53.0301 18.4978L33.9822 37.5269L18.6896 52.8152C18.2542 53.1961 17.9021 53.6625 17.6552 54.1855C17.4083 54.7084 17.2719 55.2765 17.2546 55.8544C17.2373 56.4323 17.3394 57.0076 17.5546 57.5443C17.7697 58.081 18.0933 58.5677 18.5051 58.9739C22.0325 62.5412 25.6033 66.0868 29.1632 69.6215C29.5534 70.003 30.0175 70.3008 30.527 70.4966C31.0365 70.6924 31.5808 70.782 32.1263 70.76Z" fill="#060606"/>
<path d="M6.03461 87.9891C4.82875 87.9973 3.64939 87.6358 2.65569 86.9533C1.66199 86.2708 0.901766 85.3002 0.477623 84.1724C-0.00578211 83.1255 -0.130594 81.9486 0.122471 80.8237C0.375536 79.6987 0.992392 78.6884 1.87772 77.9487C4.74304 75.5958 7.72775 73.373 10.7884 71.2695C12.476 70.3357 13.7305 68.7789 14.2832 66.9324C14.3842 66.5929 14.5225 66.2657 14.6957 65.9566C14.865 65.6579 15.1384 65.4318 15.4638 65.3214C15.7892 65.211 16.1439 65.224 16.4603 65.3579C16.7767 65.4918 17.0327 65.7374 17.1797 66.0477C17.3266 66.3581 17.3542 66.7115 17.2571 67.0409C16.4735 69.7237 14.747 72.0338 12.3947 73.5465C9.61626 75.2705 7.04398 77.3198 4.43914 79.3149C3.78013 79.8452 3.2744 80.5413 2.97393 81.3316C2.76032 81.9866 2.79615 82.6973 3.07453 83.3276C3.35291 83.9578 3.85427 84.4633 4.48256 84.7471C5.05951 85.0916 5.73808 85.2258 6.4029 85.127C7.06772 85.0281 7.67777 84.7024 8.12933 84.205C9.31236 82.8822 10.4194 81.5051 11.483 80.0847C12.8072 78.3065 14.0662 76.4849 15.3143 74.6633C15.8357 73.8376 16.5173 73.1244 17.3188 72.5657C18.1203 72.0071 19.0256 71.6143 19.9813 71.4105C20.3788 71.3016 20.7701 71.1713 21.1535 71.0202C21.4746 70.9123 21.8242 70.9254 22.1363 71.057C22.4485 71.1887 22.7017 71.4297 22.8484 71.7348C22.9951 72.0399 23.0251 72.388 22.9329 72.7137C22.8406 73.0393 22.6324 73.3201 22.3474 73.5032C21.7118 73.8731 21.0387 74.1748 20.3395 74.4031C19.1517 74.764 18.1294 75.5319 17.4525 76.5716C15.2818 79.651 13.1111 82.7087 10.7667 85.7121C10.195 86.417 9.47419 86.9866 8.65605 87.3803C7.8379 87.774 6.94268 87.9819 6.03461 87.9891Z" fill="#060606"/>
<path d="M82.0955 0C83.2762 0.0412599 84.419 0.426628 85.3833 1.10863C86.3475 1.79064 87.091 2.7395 87.5222 3.83835C87.9741 4.90863 88.0736 6.09474 87.8063 7.22523C87.539 8.35572 86.9188 9.372 86.0353 10.1272C84.4073 11.5692 82.6707 12.9029 80.9233 14.2149C79.6542 15.1746 78.3316 16.0615 76.9618 16.8714C75.4201 17.723 74.2572 19.1249 73.7057 20.7965C73.5646 21.176 73.3476 21.5446 73.2282 21.935C73.2139 22.106 73.1556 22.2704 73.0591 22.4124C72.9626 22.5543 72.831 22.669 72.6771 22.7453C72.5233 22.8217 72.3523 22.857 72.1807 22.848C72.0092 22.839 71.8429 22.786 71.6978 22.694C71.5228 22.6344 71.3614 22.5405 71.2231 22.4178C71.0849 22.2951 70.9725 22.1461 70.8926 21.9795C70.8128 21.8129 70.767 21.632 70.758 21.4474C70.7491 21.2629 70.7771 21.0785 70.8404 20.9049C71.5704 18.1167 73.362 15.7238 75.833 14.2366C78.6224 12.4909 81.1946 10.3874 83.832 8.39233C84.3067 8.0627 84.6774 7.60466 84.9006 7.07196C85.1239 6.53927 85.1904 5.954 85.0924 5.38486C84.9944 4.81572 84.736 4.2863 84.3474 3.85874C83.9588 3.43117 83.4562 3.1232 82.8986 2.97094C82.3221 2.76091 81.693 2.74357 81.1058 2.92151C80.5186 3.09945 80.0051 3.46306 79.6426 3.95764C77.3199 7.00808 75.0299 10.0802 72.7723 13.174C71.9773 14.3861 70.8717 15.3633 69.5706 16.004C68.6589 16.416 67.7146 16.7413 66.7704 17.0882C66.4696 17.1702 66.15 17.1487 65.863 17.0272C65.576 16.9057 65.3381 16.6913 65.1878 16.4185C65.0375 16.1457 64.9834 15.8303 65.0342 15.523C65.085 15.2158 65.2378 14.9345 65.4679 14.7245C65.9397 14.3701 66.4789 14.1155 67.0526 13.9764C68.5558 13.6106 69.8543 12.6678 70.6668 11.3524C72.7072 8.50074 74.7694 5.65995 76.8858 2.86251C77.7961 1.53049 79.1692 0.583759 80.7388 0.206015C81.2272 0.0975877 81.6613 0.0542139 82.0955 0Z" fill="#060606"/>
<path d="M49.4378 34.556C49.4074 35.4897 49.1444 36.4011 48.6725 37.2076C48.2006 38.0142 47.5348 38.6904 46.7353 39.175C45.6439 39.8631 44.4923 40.451 43.2948 40.9315C42.5242 41.3002 41.6884 41.5388 40.9178 41.8966C39.6869 42.4384 38.7116 43.4322 38.1936 44.6723C37.7161 45.7566 37.2711 46.9059 36.7393 47.9793C35.6445 50.2291 34.1138 52.2395 32.2359 53.8941C30.358 55.5487 28.1701 56.8147 25.7989 57.6186C25.515 57.6873 25.2413 57.793 24.9849 57.933C24.2795 58.4427 23.8019 57.9981 23.3895 57.5318C23.2833 57.4259 23.2003 57.2991 23.1457 57.1595C23.0911 57.0198 23.0661 56.8704 23.0722 56.7206C23.0783 56.5709 23.1155 56.424 23.1813 56.2893C23.2471 56.1545 23.3402 56.0349 23.4546 55.9379C23.6633 55.7322 23.921 55.5829 24.2035 55.5042C26.6822 54.778 28.9523 53.473 30.8264 51.697C32.7004 49.9209 34.1245 47.7249 34.981 45.2904C35.5094 43.7867 36.3792 42.4256 37.5222 41.3139C38.6652 40.2021 40.0503 39.3698 41.569 38.8823C42.4976 38.5815 43.3982 38.2005 44.2607 37.7438C45.7585 36.9089 46.9849 35.8571 46.681 33.8404C46.6584 33.6709 46.6706 33.4985 46.7169 33.3339C46.7631 33.1692 46.8426 33.0157 46.9502 32.8828C47.0579 32.7498 47.1916 32.6402 47.3431 32.5606C47.4946 32.4811 47.6608 32.4332 47.8315 32.42C48.015 32.3974 48.2011 32.4116 48.379 32.4617C48.5569 32.5119 48.723 32.5971 48.8675 32.7122C49.0121 32.8273 49.1322 32.9701 49.2208 33.1321C49.3094 33.2942 49.3647 33.4723 49.3836 33.656C49.427 33.9163 49.4161 34.1656 49.4378 34.556Z" fill="#060606"/>
<path d="M30.8783 67.5831C29.7278 67.3771 29.2068 66.9433 29.196 66.0434C29.1851 65.1434 29.6844 64.5796 30.748 64.5579C32.973 64.5579 34.1777 63.0183 35.1654 61.3051C35.8817 60.069 36.3918 58.692 36.9996 57.3909C37.8037 55.4431 39.148 53.7653 40.8743 52.555C42.0399 51.7265 43.4505 51.3141 44.8793 51.384C45.0491 51.3752 45.2189 51.4008 45.3785 51.4594C45.5382 51.518 45.6842 51.6083 45.808 51.7248C45.9317 51.8413 46.0306 51.9817 46.0985 52.1374C46.1665 52.2931 46.2021 52.461 46.2034 52.6309C46.2034 53.4766 45.7475 54.1922 44.9444 54.1489C42.2202 54.0404 40.8635 55.8295 39.6913 57.8354C39.0509 58.9197 38.6059 60.1775 38.0307 61.3485C37.2352 63.4018 35.8058 65.1488 33.9498 66.3362C32.9583 66.8273 31.9316 67.2441 30.8783 67.5831Z" fill="#060606"/>
<path d="M46.9304 48.0661C46.2249 47.9468 45.5086 47.8059 45.3458 46.9818C45.2926 46.8167 45.2733 46.6426 45.289 46.4699C45.3047 46.2972 45.355 46.1294 45.4371 45.9765C45.5192 45.8237 45.6312 45.689 45.7666 45.5804C45.902 45.4718 46.0578 45.3916 46.2249 45.3445C48.9709 44.7265 49.9911 42.7097 50.2624 40.2701C50.7074 36.486 53.0735 34.2524 56.1342 32.5067C56.2965 32.4022 56.4779 32.3308 56.6679 32.2966C56.858 32.2624 57.0529 32.2661 57.2415 32.3074C57.4301 32.3487 57.6087 32.4269 57.7669 32.5374C57.9252 32.6479 58.0601 32.7885 58.1638 32.9512C58.3331 33.3002 58.3635 33.7003 58.2486 34.0708C58.1338 34.4412 57.8823 34.7542 57.5451 34.9463L55.9931 35.9547C55.0592 36.6079 54.2826 37.4605 53.7194 38.4507C53.1563 39.4409 52.8207 40.5439 52.737 41.6797C52.5973 43.1127 52.0363 44.4723 51.1247 45.5875C50.2131 46.7027 48.9917 47.5236 47.6142 47.9468L47.1909 48.0878C47.1037 48.0858 47.0167 48.0785 46.9304 48.0661Z" fill="#060606"/>
<path d="M57.7838 40.6713C57.4256 40.3893 56.9047 40.1508 56.6984 39.7713C56.6091 39.555 56.5715 39.3209 56.5884 39.0875C56.6054 38.8542 56.6765 38.6279 56.7961 38.4268C57.3915 37.8254 58.1149 37.3659 58.9126 37.0823C59.6728 36.8781 60.3606 36.4651 60.8977 35.8901C61.4349 35.3151 61.8 34.6012 61.9515 33.8295C62.288 32.55 62.5268 31.238 62.8524 29.9586C62.9737 29.4406 63.1635 28.9411 63.4168 28.4731C63.4918 28.319 63.5968 28.1813 63.7257 28.0682C63.8547 27.955 64.0048 27.8687 64.1675 27.8142C64.3302 27.7597 64.5021 27.7381 64.6732 27.7507C64.8444 27.7633 65.0112 27.8098 65.1642 27.8876C65.4777 27.9967 65.7378 28.2213 65.8911 28.5156C66.0444 28.8098 66.0795 29.1515 65.989 29.4707C65.5766 31.1622 65.1533 32.8428 64.6649 34.5126C64.3884 35.7139 63.7882 36.8168 62.9292 37.7017C62.0702 38.5866 60.9852 39.2198 59.7917 39.5328C59.4065 39.6947 59.0421 39.9022 58.7063 40.1508C58.511 40.3568 58.2179 40.4978 57.7838 40.6713Z" fill="#060606"/>
<path d="M57.5885 21.382C57.6308 22.9118 57.1265 24.4066 56.166 25.5987C55.2054 26.7908 53.8513 27.6023 52.3463 27.8876C51.8174 27.9301 51.2917 28.0062 50.7725 28.1154C49.8825 28.3756 49.5027 27.866 49.2422 27.2045C49.1753 27.0533 49.1415 26.8895 49.1431 26.7241C49.1448 26.5588 49.1818 26.3957 49.2516 26.2457C49.3215 26.0958 49.4227 25.9626 49.5484 25.8549C49.674 25.7473 49.8213 25.6677 49.9802 25.6215C50.4733 25.4316 50.9936 25.3218 51.5214 25.2962C52.2832 25.2969 53.0191 25.0196 53.5907 24.5165C54.1623 24.0133 54.5303 23.3189 54.6255 22.5638C54.7087 22.1609 54.8138 21.7627 54.9403 21.3712C55.0316 21.0424 55.2393 20.7579 55.5247 20.5704C55.8101 20.383 56.1539 20.3054 56.4923 20.3519C56.7636 20.3776 57.0186 20.4927 57.2171 20.6793C57.4156 20.8658 57.5463 21.113 57.5885 21.382Z" fill="#060606"/>
</g>
<defs>
<clipPath id="clip0_13_35">
<rect width="88" height="88" fill="white"/>
</clipPath>
</defs>
</svg>
