<svg width="87" height="89" viewBox="0 0 87 89" fill="none" xmlns="http://www.w3.org/2000/svg">
<g clip-path="url(#clip0_13_44)">
<path d="M16.7598 89C13.588 87.7503 14.3028 84.9475 14.2134 82.3962H10.3939C8.47391 82.469 6.58004 81.9356 4.9842 80.8727C3.38836 79.8098 2.17263 78.2721 1.51152 76.4801C0.976584 75.2953 0.511694 74.0804 0.119223 72.8418C-0.0129223 72.3143 -0.0287393 71.7648 0.072855 71.2307C0.174449 70.6967 0.391054 70.1907 0.707836 69.7476C1.02462 69.3044 1.43409 68.9345 1.90821 68.6631C2.38233 68.3918 2.9099 68.2254 3.45478 68.1754C4.94387 68.0645 6.43296 68.1237 7.92205 68.1163H9.00164C9.5526 64.7071 10.0961 61.3793 10.6322 58.0442C11.1683 54.709 11.7043 51.2555 12.2553 47.8611C12.4191 46.8406 13.0743 46.3081 13.9007 46.4708C14.7272 46.6335 15.0548 47.3287 14.8984 48.2974C13.8412 54.8495 12.7914 61.4015 11.7267 68.0423H75.3033C74.9534 65.7868 74.6034 63.5683 74.2461 61.3867C73.4022 56.1362 72.5535 50.8882 71.6997 45.6426C71.2728 42.9951 70.8559 40.3428 70.4489 37.6854C70.3744 37.2196 70.2032 36.9459 69.6597 36.9977C68.6992 37.0421 67.7387 36.9977 66.7783 36.9977C65.6391 36.9977 65.1403 37.5154 65.1031 38.6616C65.0658 39.8078 65.1031 40.7988 65.1031 41.8711C65.1031 42.9434 64.6042 43.3945 63.8075 43.4093C63.0109 43.4241 62.4525 42.8102 62.445 41.8415C62.445 40.71 62.445 39.5786 62.445 38.4545C62.4431 37.9066 62.5504 37.3637 62.7608 36.8572C62.9712 36.3507 63.2806 35.8906 63.671 35.5035C64.0614 35.1164 64.5252 34.81 65.0355 34.6019C65.5458 34.3938 66.0926 34.2882 66.6443 34.2911C67.6941 34.2911 68.7364 34.2911 69.9873 34.2911C69.7052 32.4459 69.3149 30.6187 68.8183 28.8187C68.3222 27.4926 67.4226 26.3527 66.2444 25.5576C65.0663 24.7625 63.6681 24.3515 62.244 24.3817C60.8145 24.3817 59.3849 24.3817 57.9629 24.3817C56.9726 24.3817 56.3547 23.8492 56.377 23.0432C56.3993 22.2371 57.0024 21.7712 57.948 21.786C59.9851 21.7238 62.0242 21.7881 64.0532 21.9783C66.0068 22.2848 67.813 23.1963 69.2142 24.5827C70.6154 25.9691 71.5399 27.7596 71.8561 29.6988C73.1069 37.3675 74.3205 45.0436 75.5788 52.7123C76.3978 57.8149 77.2391 62.9101 78.0805 68.0941C79.7408 68.0941 81.3713 68.0941 83.0019 68.0941C83.9743 68.0459 84.929 68.3655 85.6736 68.9884C86.4183 69.6114 86.8976 70.4915 87.015 71.4515C87.0845 72.1378 86.9953 72.8308 86.7544 73.4777C86.3569 74.6564 85.887 75.8097 85.3472 76.9312C84.6537 78.5886 83.4705 79.9981 81.9538 80.9738C80.4372 81.9495 78.6583 82.4454 76.852 82.3962C75.549 82.3962 74.2461 82.3962 72.8612 82.3962C72.8612 83.1875 72.8165 83.8752 72.8612 84.563C73.0324 86.6336 72.3028 88.1644 70.3149 89H16.7598ZM70.1362 82.3962H62.177C61.8663 82.4099 61.5607 82.314 61.3143 82.1255C61.068 81.937 60.8966 81.668 60.8307 81.3662C60.7647 81.0643 60.8084 80.749 60.9539 80.476C61.0995 80.203 61.3376 79.9899 61.626 79.8745C61.9032 79.7912 62.1942 79.7635 62.4823 79.7931C67.2101 79.7931 71.9305 79.7931 76.6286 79.7931C77.9958 79.8473 79.3455 79.472 80.4856 78.7205C81.6258 77.9691 82.4984 76.8798 82.9796 75.6075C83.3369 74.7867 83.6571 73.9436 83.9921 73.1154C84.692 71.4219 84.2304 70.7489 82.3765 70.7489H4.19933C2.88148 70.7489 2.36775 71.4884 2.83681 72.7456C3.15696 73.5813 3.5069 74.4095 3.84939 75.2378C5.15979 78.4029 7.2594 79.7931 10.7364 79.7931H55.1857C55.4753 79.7634 55.7672 79.7634 56.0568 79.7931C56.3618 79.8447 56.6386 80.0019 56.8381 80.2367C57.0377 80.4715 57.1472 80.7689 57.1472 81.0762C57.1472 81.3835 57.0377 81.6809 56.8381 81.9157C56.6386 82.1505 56.3618 82.3076 56.0568 82.3592C55.7644 82.3815 55.4707 82.3815 55.1783 82.3592H16.9013V84.7996C16.9013 86.2787 16.9608 86.36 18.4797 86.36H69.1087C69.7788 86.36 70.1436 86.0716 70.1287 85.3616C70.1064 84.4447 70.1213 83.4907 70.1213 82.3962H70.1362Z" fill="#060606"/>
<path d="M16.7595 36.9607C16.5212 38.3879 16.2979 39.7782 16.0671 41.1685C16.0224 41.4569 15.9777 41.7379 15.9107 42.0189C15.887 42.189 15.8296 42.3526 15.7416 42.5003C15.6537 42.6481 15.537 42.777 15.3984 42.8795C15.2599 42.9821 15.1021 43.0562 14.9344 43.0976C14.7667 43.1391 14.5924 43.1469 14.4216 43.1208C14.2407 43.0902 14.0681 43.0232 13.9142 42.924C13.7603 42.8248 13.6284 42.6954 13.5266 42.5437C13.4249 42.3921 13.3553 42.2215 13.3223 42.0422C13.2893 41.8629 13.2935 41.6789 13.3346 41.5013C13.5505 40.0222 13.8036 38.5432 14.0419 37.0642C14.4365 34.6682 14.8311 32.2796 15.2332 29.8836C15.5796 27.6143 16.7357 25.5443 18.4906 24.051C20.2455 22.5578 22.4823 21.7408 24.7931 21.749H29.1636C30.1092 21.749 30.6527 22.2518 30.6527 23.0431C30.6527 23.8344 30.0794 24.3298 29.1636 24.352C27.3603 24.3111 25.5561 24.3629 23.7582 24.5073C22.3247 24.6678 20.9817 25.2834 19.9287 26.2627C18.8757 27.2419 18.1689 28.5326 17.9135 29.9427C17.6157 31.3182 17.4519 32.7307 17.2062 34.2689H19.4845C22.2319 34.2689 23.9518 35.9919 23.9518 38.7059C23.9518 42.0041 23.9518 45.3024 23.9518 48.608C23.9122 48.909 23.9703 49.2146 24.1176 49.4806C24.2648 49.7466 24.4937 49.959 24.7708 50.087C24.9832 50.1876 25.2189 50.2298 25.4533 50.2093C25.6877 50.1888 25.9123 50.1064 26.1038 49.9705C26.2953 49.8347 26.4467 49.6504 26.5422 49.4368C26.6377 49.2232 26.6739 48.9881 26.647 48.7559C26.6843 47.1659 26.647 45.5686 26.647 43.9786C26.5944 42.9388 26.8628 41.9078 27.4163 41.0236C27.9699 40.1395 28.7821 39.4443 29.7443 39.0313C30.5033 38.7019 31.3318 38.5616 32.1578 38.6226C32.9838 38.6836 33.7823 38.9441 34.4839 39.3815C35.1854 39.8188 35.7688 40.4197 36.1833 41.132C36.5978 41.8442 36.8308 42.6463 36.8622 43.4684C36.8622 43.8973 36.8622 44.3336 36.8622 44.7699C36.8651 45.0447 36.9225 45.3163 37.0311 45.5691C37.1397 45.8219 37.2974 46.051 37.4951 46.2432C37.6929 46.4355 37.9268 46.5872 38.1835 46.6897C38.4403 46.7922 38.7149 46.8434 38.9916 46.8405C39.2683 46.8376 39.5417 46.7806 39.7962 46.6727C40.0507 46.5649 40.2814 46.4083 40.475 46.2119C40.6685 46.0155 40.8213 45.7831 40.9245 45.5281C41.0276 45.2731 41.0792 45.0004 41.0763 44.7255C41.0763 42.6993 41.0763 40.673 41.0763 38.6468C41.0471 38.0659 41.1414 37.4854 41.353 36.9431C41.5647 36.4008 41.889 35.9088 42.3048 35.4993C42.7207 35.0898 43.2187 34.7719 43.7664 34.5662C44.3142 34.3606 44.8994 34.2719 45.484 34.3058H54.6642C55.249 34.2761 55.8336 34.3686 56.3801 34.5773C56.9266 34.7861 57.4229 35.1064 57.837 35.5177C58.251 35.9289 58.5735 36.4219 58.7837 36.9647C58.9939 37.5075 59.087 38.0881 59.057 38.6689C59.057 42.8102 59.057 46.9515 59.057 51.0927C59.057 51.534 59.2335 51.9572 59.5477 52.2693C59.8619 52.5813 60.288 52.7566 60.7323 52.7566C61.1766 52.7566 61.6027 52.5813 61.9168 52.2693C62.231 51.9572 62.4075 51.534 62.4075 51.0927C62.4075 50.8043 62.4075 50.5159 62.4075 50.2201C62.4075 49.414 62.4075 48.6006 62.4075 47.7945C62.3956 47.6124 62.4227 47.4298 62.4873 47.259C62.5518 47.0881 62.6522 46.9329 62.7817 46.8035C62.9113 46.6741 63.0671 46.5735 63.2388 46.5085C63.4104 46.4435 63.5941 46.4155 63.7775 46.4264C63.9539 46.4173 64.1302 46.4459 64.2945 46.5102C64.4589 46.5744 64.6074 46.673 64.7302 46.7991C64.853 46.9253 64.9471 47.0761 65.0062 47.2414C65.0653 47.4067 65.0881 47.5827 65.073 47.7575C65.073 49.0295 65.1251 50.3088 65.073 51.5734C65.0029 52.6393 64.5266 53.6387 63.741 54.3682C62.9554 55.0977 61.9194 55.5024 60.844 55.5002C59.7685 55.5502 58.7151 55.1859 57.9036 54.4832C57.0921 53.7805 56.5851 52.7937 56.4884 51.7287C56.3469 49.9761 56.4065 48.2012 56.399 46.4412C56.399 43.9195 56.399 41.3977 56.399 38.8834C56.399 37.4044 55.9449 36.9681 54.4707 36.9607H45.685C44.1959 36.9607 43.7418 37.4413 43.7343 38.8834C43.7343 40.9392 43.7343 42.9951 43.7343 45.0509C43.6892 46.1798 43.237 47.2549 42.4604 48.0803C41.6837 48.9057 40.6343 49.4264 39.5034 49.5474C38.3725 49.6685 37.2354 49.3818 36.2996 48.7396C35.3637 48.0975 34.6914 47.1426 34.4052 46.0492C34.2666 45.1654 34.1846 44.2738 34.1595 43.3796C34.1074 42.8143 33.8537 42.2861 33.4442 41.8902C33.0347 41.4943 32.4962 41.2567 31.9259 41.2202C31.3677 41.2043 30.8206 41.377 30.3743 41.7102C29.9279 42.0434 29.6086 42.5173 29.4689 43.0542C29.3979 43.3621 29.3679 43.6778 29.3795 43.9934C29.3795 45.6425 29.3795 47.299 29.3795 48.9481C29.3608 49.8971 29.0056 50.809 28.3763 51.5233C27.747 52.2376 26.8842 52.7084 25.9397 52.8527C24.9631 53.0015 23.9657 52.7851 23.1405 52.2455C22.3153 51.7059 21.7209 50.8814 21.4725 49.9317C21.3629 49.4466 21.3178 48.9494 21.3384 48.4527C21.3384 45.3023 21.3384 42.1446 21.3384 38.9869C21.3384 37.4266 20.8768 36.9533 19.3282 36.9459L16.7595 36.9607Z" fill="#060606"/>
<path d="M28.5383 11.1888C28.0022 9.77638 26.9747 8.37132 28.0394 6.75179C29.1041 5.13226 30.824 5.48722 32.3876 5.45025C32.8343 4.28922 33.2512 3.15778 33.7128 2.04112C34.6212 -0.177413 37.0484 -0.680278 38.7013 1.07236C39.766 2.20381 40.6743 3.47576 41.6795 4.66637C41.8566 4.83437 42.0899 4.93176 42.3347 4.93998C47.0625 5.25058 50.3609 7.72054 51.9095 12.1502C52.7062 14.4057 53.5177 16.6686 54.292 18.9315C55.5727 22.6291 53.2571 25.9421 49.2962 26.1047C46.9062 26.2083 44.5236 26.334 42.1411 26.5189C40.0669 26.7006 37.9867 26.2447 36.1821 25.2129C34.3776 24.1812 32.9359 22.6234 32.0525 20.7507C31.9647 20.539 31.822 20.3543 31.6389 20.2153C31.4558 20.0762 31.2388 19.988 31.0101 19.9594C29.4017 19.5851 27.8334 19.0576 26.327 18.3843C25.9317 18.1778 25.5916 17.8808 25.3348 17.5179C25.0779 17.155 24.9117 16.7366 24.8499 16.2973C24.788 15.858 24.8323 15.4104 24.9791 14.9915C25.1259 14.5725 25.371 14.1943 25.6941 13.8881C26.595 12.9489 27.5629 12.1058 28.5383 11.1888ZM41.9401 23.8714C44.3449 23.7161 46.9583 23.5904 49.5716 23.3686C49.9756 23.3672 50.3729 23.2663 50.7279 23.0749C51.083 22.8836 51.3847 22.6077 51.606 22.2721C51.8274 21.9364 51.9614 21.5515 51.9962 21.1518C52.031 20.752 51.9654 20.35 51.8053 19.9816C50.9416 17.4081 50.0556 14.842 49.0951 12.3055C48.7053 11.2638 48.0731 10.3283 47.2503 9.57519C46.4274 8.82212 45.437 8.27279 44.3598 7.97198C41.8433 7.1807 39.6915 7.7797 38.4035 9.68024C37.1601 11.4625 35.9614 13.2743 34.7775 15.0935C34.3135 15.7675 34.0457 16.5556 34.0037 17.3711C33.9616 18.1866 34.147 18.9978 34.5393 19.7154C35.9986 22.5921 38.463 23.9454 41.9549 23.8714H41.9401ZM33.1395 12.6752L35.5891 9.01469C33.899 7.77971 32.0748 8.17163 30.072 8.03113C31.025 9.82814 31.2484 11.7361 33.1395 12.6752ZM39.2523 5.47983L36.4304 2.42565L35.2392 5.57597C36.5942 7.15852 37.8153 6.70742 39.0214 5.6943C39.0847 5.61945 39.1518 5.54786 39.2225 5.47983H39.2523ZM31.7175 15.0417L29.8114 13.5627L27.6225 16.1066L31.2112 17.3785L31.7175 15.0417Z" fill="#060606"/>
<path d="M39.5277 16.5576C39.9173 16.574 40.2866 16.735 40.5624 17.0089C40.8381 17.2828 41.0003 17.6496 41.0168 18.0366C41.011 18.2315 40.9665 18.4234 40.8858 18.6011C40.8051 18.7789 40.6898 18.939 40.5466 19.0724C40.4033 19.2057 40.235 19.3096 40.0512 19.3781C39.8674 19.4465 39.6717 19.4782 39.4755 19.4713C39.2864 19.4754 39.0984 19.4412 38.923 19.3707C38.7476 19.3003 38.5885 19.195 38.4554 19.0615C38.3223 18.9279 38.2181 18.7688 38.1489 18.5939C38.0798 18.419 38.0473 18.2319 38.0535 18.044C38.0515 17.653 38.2054 17.2772 38.4817 16.9986C38.758 16.7201 39.134 16.5615 39.5277 16.5576Z" fill="#060606"/>
<path d="M43.0943 11.2036C43.4892 11.2036 43.868 11.3594 44.1473 11.6368C44.4265 11.9142 44.5834 12.2904 44.5834 12.6826C44.5935 12.872 44.5648 13.0615 44.4992 13.2396C44.4335 13.4177 44.3323 13.5808 44.2015 13.719C44.0707 13.8572 43.9131 13.9677 43.7382 14.0437C43.5632 14.1198 43.3746 14.1599 43.1837 14.1617C42.9875 14.1716 42.7912 14.1429 42.6062 14.0772C42.4212 14.0114 42.2512 13.91 42.1059 13.7787C41.9605 13.6474 41.8428 13.4889 41.7594 13.3122C41.676 13.1355 41.6287 12.9441 41.6201 12.7492C41.6196 12.353 41.7722 11.9717 42.0466 11.6841C42.3209 11.3965 42.696 11.2245 43.0943 11.2036Z" fill="#060606"/>
<path d="M47.1298 18.2363C47.124 18.4312 47.0795 18.6231 46.9988 18.8008C46.9181 18.9786 46.8028 19.1387 46.6596 19.272C46.5164 19.4054 46.348 19.5092 46.1642 19.5777C45.9804 19.6462 45.7848 19.6779 45.5886 19.671C45.3924 19.6714 45.1983 19.6318 45.0182 19.5545C44.8381 19.4772 44.676 19.3639 44.5419 19.2217C44.4078 19.0795 44.3046 18.9114 44.2388 18.7279C44.1729 18.5444 44.1458 18.3493 44.159 18.155C44.1744 17.773 44.3381 17.4119 44.6157 17.1472C44.8933 16.8825 45.2633 16.7348 45.6481 16.7351C46.0414 16.7501 46.4139 16.914 46.6894 17.1931C46.9649 17.4723 47.1225 17.8455 47.1298 18.2363Z" fill="#060606"/>
</g>
<defs>
<clipPath id="clip0_13_44">
<rect width="87" height="89" fill="white"/>
</clipPath>
</defs>
</svg>
