<svg width="56" height="89" viewBox="0 0 56 89" fill="none" xmlns="http://www.w3.org/2000/svg">
<g clip-path="url(#clip0_13_51)">
<path d="M51.0505 -0.0319551C52.2665 1.03175 52.2132 1.77634 50.8692 2.69112C48.1812 4.51005 45.5358 6.35025 42.7945 8.13727C42.3714 8.38829 42.0088 8.72895 41.7323 9.13518C41.4558 9.5414 41.2722 10.0033 41.1945 10.4881C40.9812 11.7113 40.7038 12.9133 40.4265 14.2323H50.7412C52.9278 14.2323 53.8025 15.4875 53.1625 17.5936C52.6618 19.1003 52.2487 20.6346 51.9252 22.1888C51.0658 26.8627 51.7234 31.6881 53.8025 35.9637C55.4448 39.3385 56.1799 43.0809 55.9358 46.8241C55.7542 50.1034 54.8083 53.2952 53.1733 56.1462C51.5383 58.9971 49.2593 61.4287 46.5172 63.2477C44.2232 64.8383 41.6282 65.9458 38.8905 66.5026C38.3145 66.6196 38.2185 66.8643 38.2185 67.3642C38.2185 71.7183 38.2185 76.0653 38.2185 80.4052C38.1972 80.6618 38.2622 80.9182 38.4032 81.1339C38.5442 81.3496 38.7531 81.5124 38.9972 81.5966C41.3332 82.7454 43.6692 83.9048 45.9839 85.0962C46.256 85.2034 46.5017 85.3681 46.704 85.579C46.9062 85.7899 47.0603 86.042 47.1556 86.3179C47.2509 86.5939 47.2851 86.8871 47.2559 87.1775C47.2267 87.4679 47.1348 87.7485 46.9865 88.0001C46.8128 88.3049 46.5592 88.557 46.253 88.7293C45.9468 88.9017 45.5994 88.9879 45.2479 88.9787H23.2958C22.8257 88.9872 22.3683 88.8261 22.0077 88.5252C21.6471 88.2242 21.4076 87.8036 21.3332 87.3406C21.2463 86.8965 21.3156 86.4361 21.5293 86.037C21.743 85.6379 22.0881 85.3244 22.5065 85.1493C24.8105 83.9793 27.1038 82.8092 29.4292 81.6923C29.7244 81.5848 29.9752 81.382 30.1414 81.116C30.3076 80.8499 30.3799 80.5361 30.3465 80.2244C30.3465 75.9696 30.3465 71.7148 30.3465 67.46C30.3465 66.8856 30.2185 66.6622 29.5892 66.5026C20.6505 64.205 15.0505 58.5887 12.9598 49.5898C12.7705 48.6276 12.6458 47.6539 12.5865 46.6752C12.4905 45.686 12.9812 45.0478 13.8025 44.9946C14.6238 44.9414 15.2105 45.4307 15.2638 46.4519C15.33 48.8598 15.9157 51.2253 16.9812 53.3872C20.5759 60.4821 26.3785 64.2689 34.3785 64.3221C38.8654 64.357 43.2173 62.7937 46.6511 59.9135C50.0849 57.0333 52.375 53.0254 53.1092 48.6112C53.7652 45.0553 53.3148 41.3844 51.8185 38.0911C50.4742 35.303 49.5676 32.3253 49.1305 29.2624C48.6398 25.4025 49.0337 21.4819 50.2825 17.7957C50.3785 17.5298 50.4425 17.2532 50.5385 16.9235H39.8718C39.2958 19.7104 38.7092 22.5079 38.1119 25.4331C38.6452 25.3267 39.1038 25.1884 39.5625 25.1459C41.1198 25.0183 42.6772 24.8268 44.2345 24.8374C44.5211 24.8372 44.8047 24.8946 45.0685 25.0062C45.3323 25.1177 45.5709 25.2811 45.77 25.4866C45.9691 25.6921 46.1247 25.9355 46.2274 26.2023C46.3301 26.469 46.3779 26.7537 46.3678 27.0393C46.4638 28.3051 46.6238 29.5709 46.7412 30.8367C46.7828 31.0205 46.7855 31.2109 46.7489 31.3958C46.7124 31.5807 46.6374 31.7559 46.5289 31.9102C46.4204 32.0644 46.2808 32.1943 46.1189 32.2916C45.9571 32.3888 45.7767 32.4512 45.5892 32.4748C45.4076 32.4863 45.2254 32.4618 45.0534 32.4026C44.8813 32.3434 44.7228 32.2508 44.5869 32.1301C44.451 32.0094 44.3404 31.863 44.2616 31.6995C44.1828 31.5359 44.1373 31.3583 44.1278 31.1771C43.9572 29.9751 43.8185 28.7731 43.6585 27.4754C41.6236 27.3322 39.5851 27.6979 37.7278 28.5391C37.5358 28.6242 37.4079 28.9965 37.3545 29.2518C36.2239 34.705 35.1003 40.1654 33.9839 45.6328C33.8239 46.4199 33.6532 47.2177 33.4825 48.0049C33.3119 48.792 32.6932 49.4302 31.9465 49.3026C31.1999 49.1749 30.6772 48.4729 30.8799 47.4517C31.2959 45.3775 31.7438 43.3246 32.1705 41.261C32.9065 37.7189 33.6212 34.1874 34.3038 30.624C34.3471 30.4131 34.3791 30.2 34.3998 29.9857C31.234 31.3254 27.74 31.6957 24.3625 31.0494C24.2245 31.9204 24.0393 32.7832 23.8078 33.6342C23.1145 35.7616 22.4639 37.9422 21.5785 40.0164C20.7735 41.8465 20.3758 43.8289 20.4128 45.827C20.4498 47.8251 20.9207 49.7915 21.7931 51.5907C22.6654 53.3899 23.9184 54.9791 25.4658 56.249C27.0132 57.5188 28.8183 58.4391 30.7566 58.9465C32.695 59.4539 34.7206 59.5362 36.6939 59.1879C38.6673 58.8396 40.5415 58.0689 42.1874 56.9289C43.8334 55.7889 45.212 54.3066 46.2283 52.5842C47.2446 50.8618 47.8745 48.9403 48.0745 46.9518C48.3475 44.6073 47.9789 42.2327 47.0078 40.0803C46.6345 39.2399 46.2292 38.3996 45.9412 37.538C45.8685 37.3781 45.8293 37.205 45.8262 37.0295C45.823 36.8539 45.8559 36.6796 45.9229 36.5171C45.9898 36.3547 46.0894 36.2077 46.2154 36.0851C46.3415 35.9625 46.4914 35.8669 46.6559 35.8042C46.8069 35.7306 46.9715 35.6888 47.1395 35.6813C47.3074 35.6738 47.4751 35.7008 47.6322 35.7607C47.7892 35.8205 47.9322 35.9119 48.0523 36.0292C48.1725 36.1465 48.2672 36.2871 48.3305 36.4424C49.9092 39.6335 51.1679 42.9735 50.7839 46.6752C50.0692 53.6319 46.4212 58.4398 39.8825 60.8225C37.611 61.6494 35.1844 61.9656 32.7761 61.7486C30.3678 61.5316 28.0373 60.7868 25.9512 59.5672C23.8652 58.3477 22.075 56.6837 20.7088 54.6941C19.3425 52.7045 18.4339 50.4385 18.0479 48.058C17.5143 45.0993 17.886 42.049 19.1145 39.3038C20.4527 36.3854 21.3789 33.296 21.8665 30.124C21.946 29.5718 22.2399 29.0728 22.6848 28.7345C23.1298 28.3963 23.6901 28.2459 24.2452 28.3157C25.5145 28.4008 26.7732 28.6136 28.0425 28.6668C30.435 28.6508 32.7841 28.0286 34.8692 26.8584C34.964 26.8068 35.0477 26.737 35.1154 26.653C35.1831 26.569 35.2336 26.4726 35.2638 26.3692C35.9145 23.2951 36.5438 20.2103 37.1732 17.1256C37.1732 17.1256 37.1732 17.0192 37.0985 16.9022H17.6958C18.0798 18.2957 18.4959 19.6359 18.8159 21.0081C19.9988 26.2714 19.4874 31.7727 17.3545 36.7296C16.8532 37.9529 16.3732 39.1974 15.9038 40.4419C15.5732 41.3248 14.9652 41.7184 14.1865 41.5056C14.0066 41.4491 13.8408 41.3549 13.7004 41.2293C13.56 41.1037 13.4482 40.9496 13.3724 40.7773C13.2966 40.605 13.2587 40.4186 13.2611 40.2305C13.2635 40.0424 13.3063 39.857 13.3865 39.6867C13.7599 38.5592 14.1439 37.4316 14.6239 36.3573C16.5132 32.1921 17.1719 27.5758 16.5225 23.0504C16.4745 22.8019 16.4103 22.5567 16.3305 22.3164L15.6159 22.9972L8.21318 30.3687C6.86918 31.6876 5.74917 31.6664 4.53317 30.2091C0.106503 24.8906 -1.16282 18.8381 1.10918 12.3389C3.38118 5.83969 8.13851 1.80825 14.9758 0.3297L16.3945 -0.0106928H20.5758C20.7278 0.0663722 20.8892 0.123578 21.0559 0.159504C24.549 0.626346 27.8277 2.10582 30.4852 4.41431C31.9252 5.63757 31.9572 6.75447 30.6239 8.0841L25.1412 13.5409C24.9598 13.7324 24.7892 13.9345 24.5225 14.2429C28.8745 14.2429 33.0558 14.2429 37.2265 14.2429C37.3594 14.2146 37.4834 14.1542 37.5876 14.0671C37.6917 13.9799 37.7728 13.8687 37.8239 13.743C38.1119 12.5942 38.3572 11.4348 38.5492 10.2647C38.6758 9.37601 38.9977 8.5262 39.4919 7.77598C39.9861 7.02575 40.6403 6.39364 41.4078 5.92479C43.5412 4.57388 45.5998 3.12725 47.6799 1.66998C48.4799 1.11685 49.2478 0.531797 50.0372 -0.0426025L51.0505 -0.0319551ZM33.0025 66.9813V68.045C33.0025 71.9169 32.9172 75.81 33.0025 79.6819C33.1437 80.6761 32.9277 81.6879 32.3928 82.5386C31.858 83.3893 31.0387 84.0239 30.0799 84.3303C28.7572 84.8622 27.5199 85.5961 26.0159 86.3513H42.4958C40.7572 85.4791 39.2959 84.692 37.7172 83.9686C37.0164 83.6765 36.4253 83.1724 36.0272 82.5273C35.6291 81.8823 35.4442 81.1288 35.4985 80.3733C35.4985 76.2355 35.4985 72.0977 35.4985 67.9493V67.0345L33.0025 66.9813ZM6.33584 28.1136L15.2212 19.2104L2.8265 17.8276C2.61859 21.5923 3.86707 25.293 6.31452 28.1668L6.33584 28.1136ZM19.3598 14.1259C19.7325 14.2427 20.1321 14.242 20.5044 14.124C20.8766 14.006 21.2033 13.7764 21.4398 13.4664C23.4558 11.339 25.5252 9.36054 27.5839 7.31823C27.9252 6.98849 28.2985 6.69066 28.7038 6.329C25.7447 3.84851 21.9878 2.51535 18.1225 2.57413C18.1117 2.78318 18.1117 2.99266 18.1225 3.20171C18.5136 6.87503 18.919 10.5341 19.3385 14.1791L19.3598 14.1259ZM15.4132 2.90387C12.8092 3.41369 10.3874 4.60288 8.3945 6.35026C10.5812 8.87124 16.0212 14.0834 16.6612 14.211L15.4132 2.90387ZM6.33584 8.31812C4.69006 10.2934 3.58734 12.6613 3.13584 15.1896L14.5278 16.4661L6.33584 8.31812Z" fill="#060606"/>
</g>
<defs>
<clipPath id="clip0_13_51">
<rect width="56" height="89" fill="white"/>
</clipPath>
</defs>
</svg>
